<?xml version="1.0" encoding="utf-8"?>
<!-- Generator: Adobe Illustrator 19.2.0, SVG Export Plug-In . SVG Version: 6.00 Build 0)  -->
<svg version="1.1" id="Layer_1" xmlns="http://www.w3.org/2000/svg" xmlns:xlink="http://www.w3.org/1999/xlink" x="0px" y="0px"
	 viewBox="0 0 612 612" style="enable-background:new 0 0 612 612;" xml:space="preserve">
<style type="text/css">
	.st0{fill:#CE202F;}
	.st1{fill:#B1D45C;}
	.st2{fill:#E31E29;}
	.st3{fill:#C92031;}
	.st4{fill:#F15D6D;}
	.st5{fill:#A0BA49;}
	.st6{fill:#E6E7E8;}
	.st7{fill:#FFFFFF;}
</style>
<g>
    <!-- the raddish radish -->
	<g>
		<path class="st0" d="M472.6,450.2c-1.7,0.9-2.7,1.3-2.7,1.3C470.7,451.2,471.7,450.8,472.6,450.2z"/>
		<path class="st0" d="M491.2,396.7c1.1-4.5,1.7-9.2,1.7-14.1c0-33.6-27.2-60.8-60.8-60.8c-21.6,0-40.5,11.2-51.3,28.1
			c-3.5-2.8-6.1-5.3-7.2-7c-5.6-9.4-47-47-76.2-114.7c0,0-14.1-58.3,0-70.5c0,0,34.8,0.9,34.8-9.4l-21.6-16.9c0,0-31,4.7-62.1,40.4
			c0,0-12.2,31-10.3,38.5c0,0,7.5,43.2,20.7,47c0,0,13.2-0.9,0.9,14.1c0,0,8.5,14.1,18.8,13.2c0,0,77.1,36.9,90.3,66.4l8.1,5.8
			c-0.4,0.9-0.8,1.8-1.2,2.8c-28.6-18.2-58.4-45.6-58.4-45.6c-3.3-9.4-18.9-12.9-18.9-12.9c-8.2,15.1-12.6,3.2-12.6,3.2
			c-8.5-10.6-49.1-5-49.1-5c-7.3,0.5-29.3,20.1-29.3,20.1c-18.6,37.6-10.3,66.5-10.3,66.5l23.3,14.4c9-2.9-5.8-33.5-5.8-33.5
			c5-16,61.2-20,61.2-20c40.4,3.8,73.8,14,96.9,22.4c-1,4.3-1.5,8.9-1.5,13.5c0,33.6,27.2,60.8,60.8,60.8c21.3,0,40-10.9,50.8-27.5
			c3.8,4,5.5,10.2,1.8,19.7c0,0-5.7,10.4-12.2,14.6c6.8-3.5,24.2-13.4,26-24.8C498.5,425.4,501.1,406.8,491.2,396.7z"/>
	</g>
	<!-- the raddish logo -->
	<g>
		<g>
			<path class="st1" d="M363.3,308c0,0-9-5.3-10-6.9c-1-1.6-8-8-13-19.6c0,0-2.4-10,0-12.1c0,0,5.9,0.2,5.9-1.6l-3.7-2.9
				c0,0-5.3,0.8-10.6,6.9c0,0-2.1,5.3-1.8,6.6c0,0,1.3,7.4,3.5,8c0,0,2.2-0.2,0.2,2.4c0,0,1.4,2.4,3.2,2.2c0,0,13.2,6.3,15.4,11.3
				l9.4,6.8C361.9,309.3,364,311.3,363.3,308z"/>
			<path class="st1" d="M367.2,314.5c0,0-8.2-6.5-10-6.9c-1.8-0.4-10.2-4.8-22.2-6c0,0-9.6,0.7-10.5,3.4c0,0,2.5,5.2,1,5.7l-4-2.5
				c0,0-1.4-4.9,1.8-11.4c0,0,3.8-3.4,5-3.4c0,0,6.9-1,8.4,0.9c0,0,0.8,2,2.2-0.5c0,0,2.7,0.6,3.2,2.2c0,0,10.7,9.9,16,10.4l9.7,6.4
				C367.7,313,370.3,314.2,367.2,314.5z"/>
			<circle class="st2" cx="363.3" cy="307.8" r="10.4"/>
			<path class="st2" d="M368.8,312.2c0,0,5.3,0.2,3.5,4.7c0,0-1.3,2.3-2.5,2.7c0,0,4.5-2,4.9-4.5c0,0,0.7-4.7-2.7-5.8
				c-3.3-1.1-2-0.7-2-0.7L368.8,312.2z"/>
			<path class="st3" d="M364.1,316.5c-5.5,0-10-4.5-10-10c0-2.4,0.9-4.7,2.3-6.4c-2.3,1.9-3.8,4.8-3.8,8c0,5.7,4.7,10.4,10.4,10.4
				c4.8,0,8.8-3.2,10-7.6C371.5,314.2,368.1,316.5,364.1,316.5z"/>
			<circle class="st4" cx="364.4" cy="305.3" r="7.9"/>
			<path class="st5" d="M325,303.7c-0.3,1.3-2.2-1.6-0.6-3.9c0,0,4.3-4.8,9-4.3c0,0,14.1,6.4,17,8.4c0,0-8.9-3-11.8-2.9
				c-6.5,0.1-8.7-2.9-11.1-1.4C325.1,301.1,325.3,302.4,325,303.7z"/>
			<path class="st5" d="M339.7,269.3c0,0-6.1-1.1-5.3,3.1c0,0,1.6,11.2,13.1,23.5c0,0-12.3-17.2-10.1-23.7
				C337.5,272.2,339.7,270,339.7,269.3z"/>
		</g>
		<g>
			<g>
				<path class="st6" d="M158.8,335.8v15H150v-37.5h15.1c6.9,0,12,0.9,15.3,2.7c3.3,1.8,5,4.6,5,8.2c0,4.7-3.5,8-10.4,10l15.1,16.6
					h-9.9l-12.8-15H158.8z M158.8,330.7h6.1c4.1,0,7-0.5,8.8-1.6c1.8-1.1,2.7-2.6,2.7-4.7c0-2.1-1-3.6-3-4.6c-2-0.9-4.9-1.4-8.9-1.4
					h-5.8V330.7z"/>
				<path class="st6" d="M231,350.8l-5.3-10.4h-20.4l-5.2,10.4h-9.2l20-37.7h9.5l20,37.7H231z M223.3,335.1l-5-10.2
					c-0.4-0.7-0.9-1.8-1.5-3.2c-0.6-1.5-1.1-2.6-1.3-3.2c-0.7,2.1-1.6,4.4-2.9,6.9l-4.8,9.8H223.3z"/>
				<path class="st6" d="M290.7,331.7c0,6.2-2.4,10.9-7.3,14.2c-4.9,3.3-11.9,4.9-21.2,4.9h-14.9v-37.5h16.5
					c8.5,0,15.1,1.6,19.8,4.8C288.4,321.3,290.7,325.8,290.7,331.7z M281.5,331.9c0-9-6-13.5-17.9-13.5H256v27.2h6.2
					C275.1,345.6,281.5,341.1,281.5,331.9z"/>
				<path class="st6" d="M345.6,331.7c0,6.2-2.4,10.9-7.3,14.2c-4.9,3.3-11.9,4.9-21.2,4.9h-14.9v-37.5h16.5
					c8.5,0,15.1,1.6,19.8,4.8C343.3,321.3,345.6,325.8,345.6,331.7z M336.4,331.9c0-9-6-13.5-17.9-13.5h-7.6v27.2h6.2
					C330,345.6,336.4,341.1,336.4,331.9z"/>
				<path class="st6" d="M410.7,340.6c0,3.3-1.7,6-5.2,7.9c-3.4,1.9-8.2,2.9-14.2,2.9c-6,0-11-0.7-14.8-2v-5.8
					c2.4,0.8,5,1.4,7.8,1.9c2.7,0.5,5.3,0.7,7.7,0.7c3.5,0,6-0.5,7.7-1.4c1.6-0.9,2.5-2.2,2.5-3.7c0-1.4-0.8-2.6-2.3-3.6
					c-1.5-1-4.6-2.1-9.4-3.5c-4.9-1.4-8.3-3-10.3-4.8c-2-1.8-3-3.9-3-6.4c0-3.1,1.6-5.6,4.7-7.4c3.2-1.8,7.4-2.7,12.7-2.7
					c5.1,0,10.2,0.8,15.3,2.4l-2.8,5c-4.7-1.4-9-2.1-12.7-2.1c-2.8,0-5,0.4-6.4,1.3c-1.5,0.9-2.2,2-2.2,3.4c0,1,0.3,1.8,0.9,2.5
					c0.6,0.7,1.5,1.3,2.9,2c1.3,0.6,3.7,1.4,7.2,2.4c3.9,1.1,6.8,2.2,8.6,3.2c1.8,1,3.2,2.1,4,3.4S410.7,338.9,410.7,340.6z"/>
				<path class="st6" d="M463.2,350.8h-8.8v-16.9h-24.6v16.9h-8.7v-37.5h8.7v15.4h24.6v-15.4h8.8V350.8z"/>
				<path class="st6" d="M362.7,325.5c-1.7,0-2.7-0.2-4.7-0.5v26h8v-25.7C366,325.4,364,325.5,362.7,325.5z"/>
			</g>
		</g>
	</g>
	<!-- Let's cook software -->
	<g>
		<path class="st7" d="M150.1,389v-13.6h2v11.7h5.2v1.9H150.1z"/>
		<path class="st7" d="M173.3,389h-7v-13.6h7v1.9h-5v3.7h4.6v1.9h-4.6v4.3h5V389z"/>
		<path class="st7" d="M187.2,389h-2v-11.7h-3.6v-1.9h9.3v1.9h-3.6V389z"/>
		<path class="st7" d="M201,375.4l-0.3,4.9h-1.3l-0.3-4.9H201z"/>
		<path class="st7" d="M217.8,385.3c0,1.2-0.4,2.2-1.2,2.8c-0.8,0.7-1.9,1-3.3,1c-1.4,0-2.5-0.2-3.4-0.7v-2.1
			c0.6,0.3,1.2,0.5,1.8,0.7c0.6,0.2,1.2,0.3,1.8,0.3c0.8,0,1.4-0.2,1.8-0.5c0.4-0.3,0.6-0.8,0.6-1.3c0-0.5-0.2-0.9-0.5-1.3
			c-0.3-0.4-1.1-0.8-2.2-1.3c-1.1-0.5-1.9-1.1-2.4-1.7c-0.5-0.6-0.7-1.4-0.7-2.3c0-1.1,0.4-2,1.1-2.7c0.7-0.6,1.7-1,2.9-1
			c1.2,0,2.4,0.3,3.5,0.9l-0.6,1.8c-1.1-0.5-2.1-0.8-2.9-0.8c-0.7,0-1.1,0.2-1.5,0.5s-0.5,0.7-0.5,1.2c0,0.4,0.1,0.7,0.2,0.9
			c0.1,0.3,0.4,0.5,0.7,0.7c0.3,0.2,0.9,0.5,1.7,0.9c0.9,0.4,1.6,0.8,2,1.2c0.4,0.4,0.7,0.8,0.9,1.2
			C217.7,384.2,217.8,384.7,217.8,385.3z"/>
		<path class="st7" d="M243.8,377.1c-1.2,0-2.1,0.5-2.7,1.4c-0.7,0.9-1,2.1-1,3.7c0,1.7,0.3,2.9,1,3.8c0.6,0.9,1.6,1.3,2.8,1.3
			c0.5,0,1-0.1,1.5-0.2c0.5-0.1,1-0.3,1.5-0.4v1.9c-1,0.4-2.1,0.6-3.3,0.6c-1.8,0-3.2-0.6-4.2-1.8c-1-1.2-1.5-2.9-1.5-5.2
			c0-1.4,0.2-2.6,0.7-3.7c0.5-1.1,1.1-1.9,2-2.4c0.9-0.6,1.9-0.8,3.1-0.8c1.3,0,2.4,0.3,3.5,0.9l-0.7,1.8c-0.4-0.2-0.9-0.4-1.3-0.6
			C244.8,377.2,244.3,377.1,243.8,377.1z"/>
		<path class="st7" d="M267.3,382.2c0,2.2-0.5,3.9-1.5,5.1c-1,1.2-2.4,1.8-4.3,1.8c-1.9,0-3.3-0.6-4.3-1.8c-1-1.2-1.5-2.9-1.5-5.2
			c0-2.2,0.5-4,1.5-5.2c1-1.2,2.4-1.8,4.3-1.8c1.8,0,3.3,0.6,4.3,1.8C266.8,378.3,267.3,380,267.3,382.2z M257.9,382.2
			c0,1.7,0.3,2.9,0.9,3.8c0.6,0.9,1.5,1.3,2.7,1.3c1.2,0,2.1-0.4,2.7-1.3c0.6-0.9,0.9-2.1,0.9-3.8c0-1.7-0.3-2.9-0.9-3.8
			c-0.6-0.9-1.5-1.3-2.7-1.3c-1.2,0-2.1,0.4-2.7,1.3C258.2,379.3,257.9,380.5,257.9,382.2z"/>
		<path class="st7" d="M287.8,382.2c0,2.2-0.5,3.9-1.5,5.1c-1,1.2-2.4,1.8-4.3,1.8c-1.9,0-3.3-0.6-4.3-1.8c-1-1.2-1.5-2.9-1.5-5.2
			c0-2.2,0.5-4,1.5-5.2c1-1.2,2.4-1.8,4.3-1.8c1.8,0,3.3,0.6,4.3,1.8C287.3,378.3,287.8,380,287.8,382.2z M278.4,382.2
			c0,1.7,0.3,2.9,0.9,3.8c0.6,0.9,1.5,1.3,2.7,1.3c1.2,0,2.1-0.4,2.7-1.3c0.6-0.9,0.9-2.1,0.9-3.8c0-1.7-0.3-2.9-0.9-3.8
			c-0.6-0.9-1.5-1.3-2.7-1.3c-1.2,0-2.1,0.4-2.7,1.3C278.7,379.3,278.4,380.5,278.4,382.2z"/>
		<path class="st7" d="M306.8,389h-2.3l-3.9-6.1l-1.2,1.1v5.1h-2v-13.6h2v6.5c0.6-0.7,1.1-1.5,1.6-2.1l3.3-4.3h2.3
			c-2.2,2.8-3.7,4.8-4.6,5.9L306.8,389z"/>
		<path class="st7" d="M333.9,385.3c0,1.2-0.4,2.2-1.2,2.8c-0.8,0.7-1.9,1-3.3,1c-1.4,0-2.5-0.2-3.4-0.7v-2.1
			c0.6,0.3,1.2,0.5,1.8,0.7c0.6,0.2,1.2,0.3,1.8,0.3c0.8,0,1.4-0.2,1.8-0.5c0.4-0.3,0.6-0.8,0.6-1.3c0-0.5-0.2-0.9-0.5-1.3
			c-0.3-0.4-1.1-0.8-2.2-1.3c-1.1-0.5-1.9-1.1-2.4-1.7c-0.5-0.6-0.7-1.4-0.7-2.3c0-1.1,0.4-2,1.1-2.7c0.7-0.6,1.7-1,2.9-1
			c1.2,0,2.4,0.3,3.5,0.9l-0.6,1.8c-1.1-0.5-2.1-0.8-2.9-0.8c-0.7,0-1.1,0.2-1.5,0.5s-0.5,0.7-0.5,1.2c0,0.4,0.1,0.7,0.2,0.9
			c0.1,0.3,0.4,0.5,0.7,0.7c0.3,0.2,0.9,0.5,1.7,0.9c0.9,0.4,1.6,0.8,2,1.2c0.4,0.4,0.7,0.8,0.9,1.2
			C333.8,384.2,333.9,384.7,333.9,385.3z"/>
		<path class="st7" d="M354.1,382.2c0,2.2-0.5,3.9-1.5,5.1c-1,1.2-2.4,1.8-4.3,1.8c-1.9,0-3.3-0.6-4.3-1.8c-1-1.2-1.5-2.9-1.5-5.2
			c0-2.2,0.5-4,1.5-5.2c1-1.2,2.4-1.8,4.3-1.8c1.8,0,3.3,0.6,4.3,1.8C353.6,378.3,354.1,380,354.1,382.2z M344.7,382.2
			c0,1.7,0.3,2.9,0.9,3.8c0.6,0.9,1.5,1.3,2.7,1.3c1.2,0,2.1-0.4,2.7-1.3c0.6-0.9,0.9-2.1,0.9-3.8c0-1.7-0.3-2.9-0.9-3.8
			c-0.6-0.9-1.5-1.3-2.7-1.3c-1.2,0-2.1,0.4-2.7,1.3C345,379.3,344.7,380.5,344.7,382.2z"/>
		<path class="st7" d="M365.7,389h-2v-13.6h7v1.9h-5v4.2h4.6v1.9h-4.6V389z"/>
		<path class="st7" d="M384,389h-2v-11.7h-3.6v-1.9h9.3v1.9H384V389z"/>
		<path class="st7" d="M407.9,389h-2.2l-2.1-8.1c-0.1-0.4-0.2-0.9-0.3-1.5c-0.1-0.7-0.2-1.1-0.2-1.4c-0.1,0.4-0.1,0.9-0.3,1.5
			c-0.1,0.6-0.2,1.1-0.3,1.4l-2,8.1h-2.2l-1.6-6.8l-1.6-6.8h2.1l1.8,7.9c0.3,1.3,0.5,2.4,0.6,3.4c0.1-0.5,0.2-1.1,0.3-1.8
			s0.2-1.2,0.3-1.6l2-7.9h2l2.1,8c0.2,0.7,0.4,1.8,0.6,3.3c0.1-0.9,0.3-2,0.6-3.4l1.8-7.9h2L407.9,389z"/>
		<path class="st7" d="M427.4,389l-1.2-3.8h-4.7l-1.2,3.8h-2.1l4.6-13.6h2.2l4.6,13.6H427.4z M425.6,383.3l-1.2-3.7
			c-0.1-0.2-0.2-0.6-0.3-1.2c-0.1-0.5-0.3-0.9-0.3-1.2c-0.2,0.8-0.4,1.6-0.7,2.5l-1.1,3.5H425.6z"/>
		<path class="st7" d="M440.1,383.6v5.4h-2v-13.6h3.5c1.6,0,2.8,0.3,3.5,1c0.8,0.7,1.1,1.6,1.1,3c0,1.7-0.8,2.9-2.4,3.6l3.5,6H445
			l-3-5.4H440.1z M440.1,381.7h1.4c0.9,0,1.6-0.2,2-0.6c0.4-0.4,0.6-1,0.6-1.7c0-0.8-0.2-1.3-0.7-1.7s-1.1-0.5-2.1-0.5h-1.3V381.7z"
			/>
		<path class="st7" d="M463,389h-7v-13.6h7v1.9h-5v3.7h4.6v1.9H458v4.3h5V389z"/>
	</g>
</g>
</svg>
