<svg xmlns="http://www.w3.org/2000/svg" width="1920" height="1080"><path d="M-198,-237L232,-208L548,-227Z" fill="#ffefa6" stroke="#ffefa6" stroke-width="1.51"/><path d="M-198,-237L548,-227L788,-263Z" fill="#ffe99b" stroke="#ffe99b" stroke-width="1.51"/><path d="M1211,1289L741,1319L1330,1312Z" fill="#c6432e" stroke="#c6432e" stroke-width="1.51"/><path d="M741,1319L122,1334L1669,1329Z" fill="#c45835" stroke="#c45835" stroke-width="1.51"/><path d="M1330,1312L741,1319L1669,1329Z" fill="#c32e2a" stroke="#c32e2a" stroke-width="1.51"/><path d="M1830,1317L1669,1329L1919,1336Z" fill="#a70226" stroke="#a70226" stroke-width="1.51"/><path d="M788,-263L1155,-244L1966,-259Z" fill="#ffa974" stroke="#ffa974" stroke-width="1.51"/><path d="M1507,-209L1798,-225L1966,-259Z" fill="#ee956c" stroke="#ee956c" stroke-width="1.51"/><path d="M1155,-244L1507,-209L1966,-259Z" fill="#fd9c6c" stroke="#fd9c6c" stroke-width="1.51"/><path d="M1939,-63L1972,113L2062,118Z" fill="#d58052" stroke="#d58052" stroke-width="1.51"/><path d="M1939,-63L2062,118L2091,-78Z" fill="#d18258" stroke="#d18258" stroke-width="1.51"/><path d="M1973,375L2050,519L2118,341Z" fill="#cb5f36" stroke="#cb5f36" stroke-width="1.51"/><path d="M2091,-78L2062,118L2118,341Z" fill="#c9794c" stroke="#c9794c" stroke-width="1.51"/><path d="M2062,118L2051,255L2118,341Z" fill="#c96f42" stroke="#c96f42" stroke-width="1.51"/><path d="M2050,519L2105,648L2118,341Z" fill="#c55433" stroke="#c55433" stroke-width="1.51"/><path d="M2092,-195L2091,-78L2118,341Z" fill="#c97d55" stroke="#c97d55" stroke-width="1.51"/><path d="M2068,1130L2053,1325L2133,822Z" fill="#ac0325" stroke="#ac0325" stroke-width="1.51"/><path d="M1946,860L2053,1000L2133,822Z" fill="#c01924" stroke="#c01924" stroke-width="1.51"/><path d="M2105,648L1975,672L2133,822Z" fill="#c6342b" stroke="#c6342b" stroke-width="1.51"/><path d="M1975,672L1946,860L2133,822Z" fill="#c92828" stroke="#c92828" stroke-width="1.51"/><path d="M2053,1000L2068,1130L2133,822Z" fill="#b50a23" stroke="#b50a23" stroke-width="1.51"/><path d="M2118,341L2105,648L2133,822Z" fill="#c1462f" stroke="#c1462f" stroke-width="1.51"/><path d="M1904,1180L2053,1325L2068,1130Z" fill="#a50026" stroke="#a50026" stroke-width="1.51"/><path d="M2051,255L1973,375L2118,341Z" fill="#cb673a" stroke="#cb673a" stroke-width="1.51"/><path d="M1946,860L1931,947L2053,1000Z" fill="#c51123" stroke="#c51123" stroke-width="1.51"/><path d="M1939,-63L2091,-78L2092,-195Z" fill="#d18662" stroke="#d18662" stroke-width="1.51"/><path d="M2050,519L1975,672L2105,648Z" fill="#c9462f" stroke="#c9462f" stroke-width="1.51"/><path d="M1972,113L1931,188L2051,255Z" fill="#d47746" stroke="#d47746" stroke-width="1.51"/><path d="M1972,113L2051,255L2062,118Z" fill="#cf7849" stroke="#cf7849" stroke-width="1.51"/><path d="M1966,-259L1939,-63L2092,-195Z" fill="#d68a68" stroke="#d68a68" stroke-width="1.51"/><path d="M1908,519L1975,672L2050,519Z" fill="#d14f30" stroke="#d14f30" stroke-width="1.51"/><path d="M1973,375L1908,519L2050,519Z" fill="#d25b34" stroke="#d25b34" stroke-width="1.51"/><path d="M1904,1180L1919,1336L2053,1325Z" fill="#a10026" stroke="#a10026" stroke-width="1.51"/><path d="M1931,947L1904,1180L2053,1000Z" fill="#bd0724" stroke="#bd0724" stroke-width="1.51"/><path d="M2053,1000L1904,1180L2068,1130Z" fill="#b20325" stroke="#b20325" stroke-width="1.51"/><path d="M1931,188L1973,375L2051,255Z" fill="#d36f3f" stroke="#d36f3f" stroke-width="1.51"/><path d="M1798,1095L1904,1180L1931,947Z" fill="#c20625" stroke="#c20625" stroke-width="1.51"/><path d="M1798,-225L1939,-63L1966,-259Z" fill="#e28e69" stroke="#e28e69" stroke-width="1.51"/><path d="M1939,-63L1748,80L1972,113Z" fill="#e18453" stroke="#e18453" stroke-width="1.51"/><path d="M1743,394L1908,519L1973,375Z" fill="#dd6235" stroke="#dd6235" stroke-width="1.51"/><path d="M1931,188L1739,284L1973,375Z" fill="#de713d" stroke="#de713d" stroke-width="1.51"/><path d="M1739,284L1743,394L1973,375Z" fill="#e26c37" stroke="#e26c37" stroke-width="1.51"/><path d="M1838,653L1946,860L1975,672Z" fill="#d63429" stroke="#d63429" stroke-width="1.51"/><path d="M1908,519L1838,653L1975,672Z" fill="#d84a2e" stroke="#d84a2e" stroke-width="1.51"/><path d="M1838,653L1735,845L1946,860Z" fill="#db2c26" stroke="#db2c26" stroke-width="1.51"/><path d="M1748,80L1931,188L1972,113Z" fill="#e0804b" stroke="#e0804b" stroke-width="1.51"/><path d="M1904,1180L1830,1317L1919,1336Z" fill="#a80026" stroke="#a80026" stroke-width="1.51"/><path d="M1798,-225L1734,-29L1939,-63Z" fill="#e88d61" stroke="#e88d61" stroke-width="1.51"/><path d="M1734,-29L1748,80L1939,-63Z" fill="#e88957" stroke="#e88957" stroke-width="1.51"/><path d="M1735,845L1931,947L1946,860Z" fill="#d31d24" stroke="#d31d24" stroke-width="1.51"/><path d="M1737,1041L1798,1095L1931,947Z" fill="#cb0b23" stroke="#cb0b23" stroke-width="1.51"/><path d="M1735,845L1737,1041L1931,947Z" fill="#d41321" stroke="#d41321" stroke-width="1.51"/><path d="M1748,80L1739,284L1931,188Z" fill="#e57d46" stroke="#e57d46" stroke-width="1.51"/><path d="M1751,556L1838,653L1908,519Z" fill="#df522f" stroke="#df522f" stroke-width="1.51"/><path d="M1743,394L1751,556L1908,519Z" fill="#e25e31" stroke="#e25e31" stroke-width="1.51"/><path d="M1798,1095L1830,1317L1904,1180Z" fill="#b80026" stroke="#b80026" stroke-width="1.51"/><path d="M1735,845L1664,982L1737,1041Z" fill="#d9141f" stroke="#d9141f" stroke-width="1.51"/><path d="M1507,-209L1621,-165L1798,-225Z" fill="#f69768" stroke="#f69768" stroke-width="1.51"/><path d="M1674,-50L1734,-29L1798,-225Z" fill="#ee9060" stroke="#ee9060" stroke-width="1.51"/><path d="M1581,1119L1669,1329L1798,1095Z" fill="#c40824" stroke="#c40824" stroke-width="1.51"/><path d="M1798,1095L1669,1329L1830,1317Z" fill="#b50425" stroke="#b50425" stroke-width="1.51"/><path d="M1656,816L1735,845L1838,653Z" fill="#e23026" stroke="#e23026" stroke-width="1.51"/><path d="M1613,691L1656,816L1838,653Z" fill="#e63b26" stroke="#e63b26" stroke-width="1.51"/><path d="M1751,556L1613,691L1838,653Z" fill="#e54b2b" stroke="#e54b2b" stroke-width="1.51"/><path d="M1621,-165L1674,-50L1798,-225Z" fill="#f19363" stroke="#f19363" stroke-width="1.51"/><path d="M1632,123L1739,284L1748,80Z" fill="#ec8246" stroke="#ec8246" stroke-width="1.51"/><path d="M1627,573L1613,691L1751,556Z" fill="#ea512a" stroke="#ea512a" stroke-width="1.51"/><path d="M1737,1041L1581,1119L1798,1095Z" fill="#cd0d23" stroke="#cd0d23" stroke-width="1.51"/><path d="M1656,816L1664,982L1735,845Z" fill="#df2221" stroke="#df2221" stroke-width="1.51"/><path d="M1632,123L1610,276L1739,284Z" fill="#ee7d3f" stroke="#ee7d3f" stroke-width="1.51"/><path d="M1739,284L1657,381L1743,394Z" fill="#e96f35" stroke="#e96f35" stroke-width="1.51"/><path d="M1734,-29L1674,-50L1748,80Z" fill="#ee8b56" stroke="#ee8b56" stroke-width="1.51"/><path d="M1674,-50L1632,123L1748,80Z" fill="#ef8a50" stroke="#ef8a50" stroke-width="1.51"/><path d="M1743,394L1657,381L1751,556Z" fill="#e86532" stroke="#e86532" stroke-width="1.51"/><path d="M1657,381L1627,573L1751,556Z" fill="#ea602f" stroke="#ea602f" stroke-width="1.51"/><path d="M1610,276L1657,381L1739,284Z" fill="#ec7436" stroke="#ec7436" stroke-width="1.51"/><path d="M1664,982L1581,1119L1737,1041Z" fill="#d31121" stroke="#d31121" stroke-width="1.51"/><path d="M788,-263L1021,-229L1155,-244Z" fill="#ffc37f" stroke="#ffc37f" stroke-width="1.51"/><path d="M1514,544L1627,573L1657,381Z" fill="#ef632d" stroke="#ef632d" stroke-width="1.51"/><path d="M1518,376L1514,544L1657,381Z" fill="#f26a2f" stroke="#f26a2f" stroke-width="1.51"/><path d="M1656,816L1508,855L1664,982Z" fill="#e4251f" stroke="#e4251f" stroke-width="1.51"/><path d="M1477,1247L1330,1312L1669,1329Z" fill="#be1724" stroke="#be1724" stroke-width="1.51"/><path d="M1581,1119L1477,1247L1669,1329Z" fill="#c40d22" stroke="#c40d22" stroke-width="1.51"/><path d="M1487,-11L1632,123L1674,-50Z" fill="#f58e52" stroke="#f58e52" stroke-width="1.51"/><path d="M1621,-165L1487,-11L1674,-50Z" fill="#f7935b" stroke="#f7935b" stroke-width="1.51"/><path d="M1466,1022L1581,1119L1664,982Z" fill="#da151f" stroke="#da151f" stroke-width="1.51"/><path d="M1613,691L1537,688L1656,816Z" fill="#ed3a24" stroke="#ed3a24" stroke-width="1.51"/><path d="M1610,276L1518,376L1657,381Z" fill="#f17232" stroke="#f17232" stroke-width="1.51"/><path d="M1508,855L1466,1022L1664,982Z" fill="#e41c1c" stroke="#e41c1c" stroke-width="1.51"/><path d="M1537,688L1508,855L1656,816Z" fill="#ed3321" stroke="#ed3321" stroke-width="1.51"/><path d="M1487,-11L1466,93L1632,123Z" fill="#f98f4d" stroke="#f98f4d" stroke-width="1.51"/><path d="M1507,-209L1487,-11L1621,-165Z" fill="#fb9761" stroke="#fb9761" stroke-width="1.51"/><path d="M1537,688L1613,691L1627,573Z" fill="#ee4b27" stroke="#ee4b27" stroke-width="1.51"/><path d="M1514,544L1537,688L1627,573Z" fill="#f15528" stroke="#f15528" stroke-width="1.51"/><path d="M1432,197L1610,276L1632,123Z" fill="#f68340" stroke="#f68340" stroke-width="1.51"/><path d="M1466,93L1432,197L1632,123Z" fill="#f88c47" stroke="#f88c47" stroke-width="1.51"/><path d="M1155,-244L1335,-162L1507,-209Z" fill="#ffa66e" stroke="#ffa66e" stroke-width="1.51"/><path d="M1466,1022L1508,1116L1581,1119Z" fill="#d81921" stroke="#d81921" stroke-width="1.51"/><path d="M1508,1116L1477,1247L1581,1119Z" fill="#d11423" stroke="#d11423" stroke-width="1.51"/><path d="M1432,197L1518,376L1610,276Z" fill="#f57c38" stroke="#f57c38" stroke-width="1.51"/><path d="M1048,1255L741,1319L1211,1289Z" fill="#c94e30" stroke="#c94e30" stroke-width="1.51"/><path d="M321,1291L122,1334L741,1319Z" fill="#c9774a" stroke="#c9774a" stroke-width="1.51"/><path d="M1335,-162L1487,-11L1507,-209Z" fill="#ff9d63" stroke="#ff9d63" stroke-width="1.51"/><path d="M1375,489L1514,544L1518,376Z" fill="#f66c30" stroke="#f66c30" stroke-width="1.51"/><path d="M1514,544L1288,662L1537,688Z" fill="#f5572a" stroke="#f5572a" stroke-width="1.51"/><path d="M1288,662L1362,795L1537,688Z" fill="#f74a28" stroke="#f74a28" stroke-width="1.51"/><path d="M1362,795L1508,855L1537,688Z" fill="#f23b24" stroke="#f23b24" stroke-width="1.51"/><path d="M1335,-162L1309,-113L1487,-11Z" fill="#ff9e62" stroke="#ff9e62" stroke-width="1.51"/><path d="M1347,1115L1477,1247L1508,1116Z" fill="#d51e24" stroke="#d51e24" stroke-width="1.51"/><path d="M1362,795L1466,1022L1508,855Z" fill="#ec3020" stroke="#ec3020" stroke-width="1.51"/><path d="M1375,489L1288,662L1514,544Z" fill="#f8652f" stroke="#f8652f" stroke-width="1.51"/><path d="M1432,197L1337,408L1518,376Z" fill="#f87c36" stroke="#f87c36" stroke-width="1.51"/><path d="M1337,408L1375,489L1518,376Z" fill="#f97433" stroke="#f97433" stroke-width="1.51"/><path d="M1285,293L1337,408L1432,197Z" fill="#fb843b" stroke="#fb843b" stroke-width="1.51"/><path d="M1362,795L1344,1039L1466,1022Z" fill="#ea2d20" stroke="#ea2d20" stroke-width="1.51"/><path d="M1466,1022L1347,1115L1508,1116Z" fill="#dc2222" stroke="#dc2222" stroke-width="1.51"/><path d="M1344,1039L1347,1115L1466,1022Z" fill="#e02923" stroke="#e02923" stroke-width="1.51"/><path d="M1296,64L1466,93L1487,-11Z" fill="#fd9652" stroke="#fd9652" stroke-width="1.51"/><path d="M1309,-113L1296,64L1487,-11Z" fill="#ff9b5a" stroke="#ff9b5a" stroke-width="1.51"/><path d="M1347,1115L1330,1312L1477,1247Z" fill="#cd2326" stroke="#cd2326" stroke-width="1.51"/><path d="M1296,64L1432,197L1466,93Z" fill="#fd934c" stroke="#fd934c" stroke-width="1.51"/><path d="M565,1285L321,1291L741,1319Z" fill="#ca6d41" stroke="#ca6d41" stroke-width="1.51"/><path d="M1221,835L1344,1039L1362,795Z" fill="#f23b24" stroke="#f23b24" stroke-width="1.51"/><path d="M1296,64L1213,221L1432,197Z" fill="#ff944a" stroke="#ff944a" stroke-width="1.51"/><path d="M1213,221L1285,293L1432,197Z" fill="#ff8c43" stroke="#ff8c43" stroke-width="1.51"/><path d="M1230,-75L1296,64L1309,-113Z" fill="#ffa15f" stroke="#ffa15f" stroke-width="1.51"/><path d="M1221,835L1149,980L1344,1039Z" fill="#f03c23" stroke="#f03c23" stroke-width="1.51"/><path d="M1211,1289L1330,1312L1347,1115Z" fill="#ce2b28" stroke="#ce2b28" stroke-width="1.51"/><path d="M1337,408L1178,567L1375,489Z" fill="#fc7434" stroke="#fc7434" stroke-width="1.51"/><path d="M1178,567L1288,662L1375,489Z" fill="#fc6a31" stroke="#fc6a31" stroke-width="1.51"/><path d="M1167,1123L1211,1289L1347,1115Z" fill="#da3329" stroke="#da3329" stroke-width="1.51"/><path d="M1288,662L1221,835L1362,795Z" fill="#f94a29" stroke="#f94a29" stroke-width="1.51"/><path d="M1220,665L1221,835L1288,662Z" fill="#fc552b" stroke="#fc552b" stroke-width="1.51"/><path d="M1285,293L1191,362L1337,408Z" fill="#fe8239" stroke="#fe8239" stroke-width="1.51"/><path d="M1191,362L1178,567L1337,408Z" fill="#fe7c37" stroke="#fe7c37" stroke-width="1.51"/><path d="M1344,1039L1167,1123L1347,1115Z" fill="#e13026" stroke="#e13026" stroke-width="1.51"/><path d="M1149,980L1167,1123L1344,1039Z" fill="#e63b26" stroke="#e63b26" stroke-width="1.51"/><path d="M1155,-244L1309,-113L1335,-162Z" fill="#ffa86d" stroke="#ffa86d" stroke-width="1.51"/><path d="M1230,-75L1198,45L1296,64Z" fill="#ffa15b" stroke="#ffa15b" stroke-width="1.51"/><path d="M1155,-244L1230,-75L1309,-113Z" fill="#ffa96b" stroke="#ffa96b" stroke-width="1.51"/><path d="M1178,567L1220,665L1288,662Z" fill="#fd6630" stroke="#fd6630" stroke-width="1.51"/><path d="M1198,45L1213,221L1296,64Z" fill="#ff9d51" stroke="#ff9d51" stroke-width="1.51"/><path d="M-198,-237L176,-203L232,-208Z" fill="#fff2ae" stroke="#fff2ae" stroke-width="1.51"/><path d="M1213,221L1191,362L1285,293Z" fill="#ff8c40" stroke="#ff8c40" stroke-width="1.51"/><path d="M905,1244L741,1319L1048,1255Z" fill="#cc5733" stroke="#cc5733" stroke-width="1.51"/><path d="M1057,416L1038,497L1178,567Z" fill="#fd863a" stroke="#fd863a" stroke-width="1.51"/><path d="M1057,416L1178,567L1191,362Z" fill="#fe853a" stroke="#fe853a" stroke-width="1.51"/><path d="M1167,1123L1048,1255L1211,1289Z" fill="#d3402c" stroke="#d3402c" stroke-width="1.51"/><path d="M1198,45L991,112L1213,221Z" fill="#ffa553" stroke="#ffa553" stroke-width="1.51"/><path d="M991,112L994,193L1213,221Z" fill="#ffa650" stroke="#ffa650" stroke-width="1.51"/><path d="M1220,665L984,735L1221,835Z" fill="#fd5d2d" stroke="#fd5d2d" stroke-width="1.51"/><path d="M984,735L1003,836L1221,835Z" fill="#f9602d" stroke="#f9602d" stroke-width="1.51"/><path d="M1077,-12L1198,45L1230,-75Z" fill="#ffa960" stroke="#ffa960" stroke-width="1.51"/><path d="M1155,-244L1077,-12L1230,-75Z" fill="#ffaf6a" stroke="#ffaf6a" stroke-width="1.51"/><path d="M1021,-229L1077,-12L1155,-244Z" fill="#ffb772" stroke="#ffb772" stroke-width="1.51"/><path d="M994,193L1191,362L1213,221Z" fill="#ff9845" stroke="#ff9845" stroke-width="1.51"/><path d="M1003,836L1149,980L1221,835Z" fill="#f45229" stroke="#f45229" stroke-width="1.51"/><path d="M1178,567L984,735L1220,665Z" fill="#fd6d32" stroke="#fd6d32" stroke-width="1.51"/><path d="M1054,1144L1048,1255L1167,1123Z" fill="#da472d" stroke="#da472d" stroke-width="1.51"/><path d="M994,193L1057,416L1191,362Z" fill="#fe9641" stroke="#fe9641" stroke-width="1.51"/><path d="M1149,980L1077,1003L1167,1123Z" fill="#e94829" stroke="#e94829" stroke-width="1.51"/><path d="M1077,-12L991,112L1198,45Z" fill="#ffad5c" stroke="#ffad5c" stroke-width="1.51"/><path d="M1038,497L984,735L1178,567Z" fill="#fd7b36" stroke="#fd7b36" stroke-width="1.51"/><path d="M1003,836L1077,1003L1149,980Z" fill="#f25328" stroke="#f25328" stroke-width="1.51"/><path d="M1077,1003L1054,1144L1167,1123Z" fill="#e4492b" stroke="#e4492b" stroke-width="1.51"/><path d="M994,193L931,267L1057,416Z" fill="#fea147" stroke="#fea147" stroke-width="1.51"/><path d="M883,591L984,735L1038,497Z" fill="#fd8338" stroke="#fd8338" stroke-width="1.51"/><path d="M931,267L892,348L1057,416Z" fill="#fe9f43" stroke="#fe9f43" stroke-width="1.51"/><path d="M919,-171L858,-18L1077,-12Z" fill="#ffbe6d" stroke="#ffbe6d" stroke-width="1.51"/><path d="M916,81L991,112L1077,-12Z" fill="#ffb45f" stroke="#ffb45f" stroke-width="1.51"/><path d="M858,-18L916,81L1077,-12Z" fill="#ffba65" stroke="#ffba65" stroke-width="1.51"/><path d="M1021,-229L919,-171L1077,-12Z" fill="#ffbd72" stroke="#ffbd72" stroke-width="1.51"/><path d="M862,1005L1054,1144L1077,1003Z" fill="#e8572d" stroke="#e8572d" stroke-width="1.51"/><path d="M1003,836L862,1005L1077,1003Z" fill="#f25d2b" stroke="#f25d2b" stroke-width="1.51"/><path d="M895,837L862,1005L1003,836Z" fill="#f5672e" stroke="#f5672e" stroke-width="1.51"/><path d="M905,1244L1048,1255L1054,1144Z" fill="#d55030" stroke="#d55030" stroke-width="1.51"/><path d="M879,1183L905,1244L1054,1144Z" fill="#d85732" stroke="#d85732" stroke-width="1.51"/><path d="M862,1005L879,1183L1054,1144Z" fill="#e25b30" stroke="#e25b30" stroke-width="1.51"/><path d="M892,348L1038,497L1057,416Z" fill="#fe953f" stroke="#fe953f" stroke-width="1.51"/><path d="M788,-263L919,-171L1021,-229Z" fill="#ffc67e" stroke="#ffc67e" stroke-width="1.51"/><path d="M892,348L883,591L1038,497Z" fill="#fe943f" stroke="#fe943f" stroke-width="1.51"/><path d="M883,591L856,647L984,735Z" fill="#fd8138" stroke="#fd8138" stroke-width="1.51"/><path d="M991,112L916,81L994,193Z" fill="#ffb359" stroke="#ffb359" stroke-width="1.51"/><path d="M984,735L895,837L1003,836Z" fill="#fa6c31" stroke="#fa6c31" stroke-width="1.51"/><path d="M916,81L931,267L994,193Z" fill="#ffb054" stroke="#ffb054" stroke-width="1.51"/><path d="M856,647L895,837L984,735Z" fill="#fd7535" stroke="#fd7535" stroke-width="1.51"/><path d="M769,379L713,509L883,591Z" fill="#fe9c42" stroke="#fe9c42" stroke-width="1.51"/><path d="M769,379L883,591L892,348Z" fill="#fe9d43" stroke="#fe9d43" stroke-width="1.51"/><path d="M856,647L772,712L895,837Z" fill="#fe7b36" stroke="#fe7b36" stroke-width="1.51"/><path d="M722,-96L858,-18L919,-171Z" fill="#ffc673" stroke="#ffc673" stroke-width="1.51"/><path d="M916,81L727,218L931,267Z" fill="#ffb455" stroke="#ffb455" stroke-width="1.51"/><path d="M727,218L892,348L931,267Z" fill="#ffac4d" stroke="#ffac4d" stroke-width="1.51"/><path d="M400,1275L321,1291L565,1285Z" fill="#ce7647" stroke="#ce7647" stroke-width="1.51"/><path d="M739,878L862,1005L895,837Z" fill="#f56c30" stroke="#f56c30" stroke-width="1.51"/><path d="M693,109L727,218L916,81Z" fill="#ffbe5d" stroke="#ffbe5d" stroke-width="1.51"/><path d="M788,-263L722,-96L919,-171Z" fill="#ffcb7d" stroke="#ffcb7d" stroke-width="1.51"/><path d="M862,1005L721,1041L879,1183Z" fill="#e66532" stroke="#e66532" stroke-width="1.51"/><path d="M858,-18L693,109L916,81Z" fill="#ffbf64" stroke="#ffbf64" stroke-width="1.51"/><path d="M727,218L769,379L892,348Z" fill="#feac4a" stroke="#feac4a" stroke-width="1.51"/><path d="M879,1183L741,1319L905,1244Z" fill="#d05c34" stroke="#d05c34" stroke-width="1.51"/><path d="M772,712L739,878L895,837Z" fill="#fa7634" stroke="#fa7634" stroke-width="1.51"/><path d="M721,1041L693,1185L879,1183Z" fill="#e16635" stroke="#e16635" stroke-width="1.51"/><path d="M693,1185L741,1319L879,1183Z" fill="#d46236" stroke="#d46236" stroke-width="1.51"/><path d="M713,509L856,647L883,591Z" fill="#fe913e" stroke="#fe913e" stroke-width="1.51"/><path d="M713,509L772,712L856,647Z" fill="#fe8d3c" stroke="#fe8d3c" stroke-width="1.51"/><path d="M722,-96L693,109L858,-18Z" fill="#ffc66c" stroke="#ffc66c" stroke-width="1.51"/><path d="M739,878L721,1041L862,1005Z" fill="#f06c30" stroke="#f06c30" stroke-width="1.51"/><path d="M-198,-237L17,-194L176,-203Z" fill="#fff5b2" stroke="#fff5b2" stroke-width="1.51"/><path d="M727,218L605,384L769,379Z" fill="#feb04b" stroke="#feb04b" stroke-width="1.51"/><path d="M713,509L617,534L772,712Z" fill="#fe9841" stroke="#fe9841" stroke-width="1.51"/><path d="M617,534L549,639L772,712Z" fill="#fe9641" stroke="#fe9641" stroke-width="1.51"/><path d="M609,815L739,878L772,712Z" fill="#fb7d37" stroke="#fb7d37" stroke-width="1.51"/><path d="M548,-227L722,-96L788,-263Z" fill="#ffd382" stroke="#ffd382" stroke-width="1.51"/><path d="M637,1125L693,1185L721,1041Z" fill="#e46c36" stroke="#e46c36" stroke-width="1.51"/><path d="M603,957L721,1041L739,878Z" fill="#f37331" stroke="#f37331" stroke-width="1.51"/><path d="M605,384L713,509L769,379Z" fill="#fea847" stroke="#fea847" stroke-width="1.51"/><path d="M549,639L609,815L772,712Z" fill="#ff893c" stroke="#ff893c" stroke-width="1.51"/><path d="M569,267L605,384L727,218Z" fill="#feb853" stroke="#feb853" stroke-width="1.51"/><path d="M566,-89L693,109L722,-96Z" fill="#ffcd71" stroke="#ffcd71" stroke-width="1.51"/><path d="M548,-227L566,-89L722,-96Z" fill="#ffd580" stroke="#ffd580" stroke-width="1.51"/><path d="M693,1185L565,1285L741,1319Z" fill="#cf6739" stroke="#cf6739" stroke-width="1.51"/><path d="M609,815L603,957L739,878Z" fill="#f77b36" stroke="#f77b36" stroke-width="1.51"/><path d="M566,-89L574,134L693,109Z" fill="#ffcc6d" stroke="#ffcc6d" stroke-width="1.51"/><path d="M605,384L617,534L713,509Z" fill="#fea747" stroke="#fea747" stroke-width="1.51"/><path d="M693,109L574,134L727,218Z" fill="#ffc35f" stroke="#ffc35f" stroke-width="1.51"/><path d="M574,134L569,267L727,218Z" fill="#ffc15c" stroke="#ffc15c" stroke-width="1.51"/><path d="M603,957L637,1125L721,1041Z" fill="#eb7236" stroke="#eb7236" stroke-width="1.51"/><path d="M566,-89L485,-14L574,134Z" fill="#ffd376" stroke="#ffd376" stroke-width="1.51"/><path d="M637,1125L565,1285L693,1185Z" fill="#d96d3a" stroke="#d96d3a" stroke-width="1.51"/><path d="M391,1004L473,1169L603,957Z" fill="#ec7d40" stroke="#ec7d40" stroke-width="1.51"/><path d="M605,384L462,430L617,534Z" fill="#ffaf4e" stroke="#ffaf4e" stroke-width="1.51"/><path d="M462,430L472,532L617,534Z" fill="#ffad4f" stroke="#ffad4f" stroke-width="1.51"/><path d="M603,957L473,1169L637,1125Z" fill="#e8763c" stroke="#e8763c" stroke-width="1.51"/><path d="M473,1169L565,1285L637,1125Z" fill="#db723f" stroke="#db723f" stroke-width="1.51"/><path d="M232,-208L408,-164L548,-227Z" fill="#ffe696" stroke="#ffe696" stroke-width="1.51"/><path d="M486,228L569,267L574,134Z" fill="#ffc661" stroke="#ffc661" stroke-width="1.51"/><path d="M442,811L603,957L609,815Z" fill="#fa833d" stroke="#fa833d" stroke-width="1.51"/><path d="M549,639L442,811L609,815Z" fill="#ff8d42" stroke="#ff8d42" stroke-width="1.51"/><path d="M472,532L549,639L617,534Z" fill="#ffa44a" stroke="#ffa44a" stroke-width="1.51"/><path d="M569,267L462,430L605,384Z" fill="#ffb753" stroke="#ffb753" stroke-width="1.51"/><path d="M442,811L391,1004L603,957Z" fill="#f78440" stroke="#f78440" stroke-width="1.51"/><path d="M408,639L442,811L549,639Z" fill="#ff994a" stroke="#ff994a" stroke-width="1.51"/><path d="M548,-227L408,-164L566,-89Z" fill="#ffdd89" stroke="#ffdd89" stroke-width="1.51"/><path d="M486,228L462,430L569,267Z" fill="#ffbf5a" stroke="#ffbf5a" stroke-width="1.51"/><path d="M396,127L486,228L574,134Z" fill="#ffce6a" stroke="#ffce6a" stroke-width="1.51"/><path d="M485,-14L396,127L574,134Z" fill="#ffd372" stroke="#ffd372" stroke-width="1.51"/><path d="M473,1169L400,1275L565,1285Z" fill="#d47544" stroke="#d47544" stroke-width="1.51"/><path d="M408,-164L485,-14L566,-89Z" fill="#ffdb83" stroke="#ffdb83" stroke-width="1.51"/><path d="M472,532L408,639L549,639Z" fill="#ffa44e" stroke="#ffa44e" stroke-width="1.51"/><path d="M265,244L265,415L462,430Z" fill="#ffc462" stroke="#ffc462" stroke-width="1.51"/><path d="M391,1004L291,1118L473,1169Z" fill="#e88249" stroke="#e88249" stroke-width="1.51"/><path d="M260,75L396,127L485,-14Z" fill="#ffda7b" stroke="#ffda7b" stroke-width="1.51"/><path d="M267,-76L260,75L485,-14Z" fill="#ffe085" stroke="#ffe085" stroke-width="1.51"/><path d="M408,-164L267,-76L485,-14Z" fill="#ffe28a" stroke="#ffe28a" stroke-width="1.51"/><path d="M265,244L462,430L486,228Z" fill="#fec662" stroke="#fec662" stroke-width="1.51"/><path d="M396,127L265,244L486,228Z" fill="#ffd16d" stroke="#ffd16d" stroke-width="1.51"/><path d="M269,881L391,1004L442,811Z" fill="#f98e48" stroke="#f98e48" stroke-width="1.51"/><path d="M265,415L269,566L462,430Z" fill="#ffbb5d" stroke="#ffbb5d" stroke-width="1.51"/><path d="M462,430L269,566L472,532Z" fill="#ffb457" stroke="#ffb457" stroke-width="1.51"/><path d="M291,1118L400,1275L473,1169Z" fill="#dd7e4a" stroke="#dd7e4a" stroke-width="1.51"/><path d="M269,566L408,639L472,532Z" fill="#ffae55" stroke="#ffae55" stroke-width="1.51"/><path d="M408,639L294,637L442,811Z" fill="#ff9f50" stroke="#ff9f50" stroke-width="1.51"/><path d="M294,637L269,881L442,811Z" fill="#ff994f" stroke="#ff994f" stroke-width="1.51"/><path d="M276,1000L291,1118L391,1004Z" fill="#ee884c" stroke="#ee884c" stroke-width="1.51"/><path d="M269,881L276,1000L391,1004Z" fill="#f68b4a" stroke="#f68b4a" stroke-width="1.51"/><path d="M291,1118L321,1291L400,1275Z" fill="#d77f4d" stroke="#d77f4d" stroke-width="1.51"/><path d="M269,566L294,637L408,639Z" fill="#ffac57" stroke="#ffac57" stroke-width="1.51"/><path d="M232,-208L267,-76L408,-164Z" fill="#ffe897" stroke="#ffe897" stroke-width="1.51"/><path d="M166,805L269,881L294,637Z" fill="#ff9c55" stroke="#ff9c55" stroke-width="1.51"/><path d="M260,75L265,244L396,127Z" fill="#fed978" stroke="#fed978" stroke-width="1.51"/><path d="M167,701L166,805L294,637Z" fill="#ffa35b" stroke="#ffa35b" stroke-width="1.51"/><path d="M291,1118L131,1156L321,1291Z" fill="#df8353" stroke="#df8353" stroke-width="1.51"/><path d="M131,1156L122,1334L321,1291Z" fill="#d38157" stroke="#d38157" stroke-width="1.51"/><path d="M260,75L167,58L265,244Z" fill="#ffdd7f" stroke="#ffdd7f" stroke-width="1.51"/><path d="M167,58L114,244L265,244Z" fill="#ffda7d" stroke="#ffda7d" stroke-width="1.51"/><path d="M123,399L265,415L265,244Z" fill="#ffc96a" stroke="#ffc96a" stroke-width="1.51"/><path d="M114,244L123,399L265,244Z" fill="#ffd073" stroke="#ffd073" stroke-width="1.51"/><path d="M167,58L260,75L267,-76Z" fill="#ffe28a" stroke="#ffe28a" stroke-width="1.51"/><path d="M265,415L84,523L269,566Z" fill="#ffbc65" stroke="#ffbc65" stroke-width="1.51"/><path d="M276,1000L132,1034L291,1118Z" fill="#ee8a51" stroke="#ee8a51" stroke-width="1.51"/><path d="M269,566L167,701L294,637Z" fill="#ffac5c" stroke="#ffac5c" stroke-width="1.51"/><path d="M123,399L84,523L265,415Z" fill="#ffc26b" stroke="#ffc26b" stroke-width="1.51"/><path d="M269,881L132,1034L276,1000Z" fill="#f68e50" stroke="#f68e50" stroke-width="1.51"/><path d="M132,1034L131,1156L291,1118Z" fill="#e98a56" stroke="#e98a56" stroke-width="1.51"/><path d="M232,-208L176,-203L267,-76Z" fill="#ffeb9e" stroke="#ffeb9e" stroke-width="1.51"/><path d="M176,-203L131,-76L267,-76Z" fill="#ffea9b" stroke="#ffea9b" stroke-width="1.51"/><path d="M131,-76L167,58L267,-76Z" fill="#ffe692" stroke="#ffe692" stroke-width="1.51"/><path d="M166,805L132,1034L269,881Z" fill="#fb9354" stroke="#fb9354" stroke-width="1.51"/><path d="M84,523L167,701L269,566Z" fill="#ffb363" stroke="#ffb363" stroke-width="1.51"/><path d="M-11,877L132,1034L166,805Z" fill="#fc975a" stroke="#fc975a" stroke-width="1.51"/><path d="M-39,93L114,244L167,58Z" fill="#ffe289" stroke="#ffe289" stroke-width="1.51"/><path d="M131,-76L-38,-11L167,58Z" fill="#ffe897" stroke="#ffe897" stroke-width="1.51"/><path d="M-32,676L166,805L167,701Z" fill="#ffa561" stroke="#ffa561" stroke-width="1.51"/><path d="M84,523L-32,676L167,701Z" fill="#ffb268" stroke="#ffb268" stroke-width="1.51"/><path d="M17,-194L131,-76L176,-203Z" fill="#ffefa5" stroke="#ffefa5" stroke-width="1.51"/><path d="M-36,1247L122,1334L131,1156Z" fill="#d7865e" stroke="#d7865e" stroke-width="1.51"/><path d="M21,1145L-36,1247L131,1156Z" fill="#e18b60" stroke="#e18b60" stroke-width="1.51"/><path d="M-32,676L-11,877L166,805Z" fill="#ffa263" stroke="#ffa263" stroke-width="1.51"/><path d="M-38,-11L-39,93L167,58Z" fill="#ffe896" stroke="#ffe896" stroke-width="1.51"/><path d="M-39,93L-62,236L114,244Z" fill="#ffde89" stroke="#ffde89" stroke-width="1.51"/><path d="M-36,1247L-199,1334L122,1334Z" fill="#cd8665" stroke="#cd8665" stroke-width="1.51"/><path d="M-20,506L84,523L123,399Z" fill="#ffc371" stroke="#ffc371" stroke-width="1.51"/><path d="M114,244L-34,367L123,399Z" fill="#ffcf76" stroke="#ffcf76" stroke-width="1.51"/><path d="M17,-194L-38,-11L131,-76Z" fill="#ffeea3" stroke="#ffeea3" stroke-width="1.51"/><path d="M21,1145L131,1156L132,1034Z" fill="#ea8c5c" stroke="#ea8c5c" stroke-width="1.51"/><path d="M-55,968L21,1145L132,1034Z" fill="#f0915e" stroke="#f0915e" stroke-width="1.51"/><path d="M-11,877L-55,968L132,1034Z" fill="#f9955e" stroke="#f9955e" stroke-width="1.51"/><path d="M-62,236L-34,367L114,244Z" fill="#ffd680" stroke="#ffd680" stroke-width="1.51"/><path d="M-34,367L-20,506L123,399Z" fill="#ffc975" stroke="#ffc975" stroke-width="1.51"/><path d="M-20,506L-32,676L84,523Z" fill="#ffbc70" stroke="#ffbc70" stroke-width="1.51"/><path d="M-32,676L-178,886L-11,877Z" fill="#ffa36a" stroke="#ffa36a" stroke-width="1.51"/><path d="M-123,-97L-38,-11L17,-194Z" fill="#fff1ab" stroke="#fff1ab" stroke-width="1.51"/><path d="M-116,1138L-36,1247L21,1145Z" fill="#e38d66" stroke="#e38d66" stroke-width="1.51"/><path d="M-55,968L-116,1138L21,1145Z" fill="#ee9265" stroke="#ee9265" stroke-width="1.51"/><path d="M-198,-237L-123,-97L17,-194Z" fill="#fff6b6" stroke="#fff6b6" stroke-width="1.51"/><path d="M-167,992L-116,1138L-55,968Z" fill="#f39668" stroke="#f39668" stroke-width="1.51"/><path d="M-62,236L-136,377L-34,367Z" fill="#ffd481" stroke="#ffd481" stroke-width="1.51"/><path d="M-162,496L-212,664L-32,676Z" fill="#ffbb78" stroke="#ffbb78" stroke-width="1.51"/><path d="M-212,664L-178,886L-32,676Z" fill="#ffab71" stroke="#ffab71" stroke-width="1.51"/><path d="M-34,367L-136,377L-20,506Z" fill="#ffcc7c" stroke="#ffcc7c" stroke-width="1.51"/><path d="M-136,377L-162,496L-20,506Z" fill="#ffca7d" stroke="#ffca7d" stroke-width="1.51"/><path d="M-162,496L-32,676L-20,506Z" fill="#ffbf76" stroke="#ffbf76" stroke-width="1.51"/><path d="M-178,886L-55,968L-11,877Z" fill="#fd9b67" stroke="#fd9b67" stroke-width="1.51"/><path d="M-202,242L-62,236L-39,93Z" fill="#ffe291" stroke="#ffe291" stroke-width="1.51"/><path d="M-210,58L-202,242L-39,93Z" fill="#ffe99a" stroke="#ffe99a" stroke-width="1.51"/><path d="M-210,58L-39,93L-38,-11Z" fill="#ffeb9f" stroke="#ffeb9f" stroke-width="1.51"/><path d="M-116,1138L-199,1334L-36,1247Z" fill="#d98c6b" stroke="#d98c6b" stroke-width="1.51"/><path d="M-123,-97L-210,58L-38,-11Z" fill="#ffefa7" stroke="#ffefa7" stroke-width="1.51"/><path d="M-202,242L-136,377L-62,236Z" fill="#ffda89" stroke="#ffda89" stroke-width="1.51"/><path d="M-178,886L-167,992L-55,968Z" fill="#fc9a68" stroke="#fc9a68" stroke-width="1.51"/><path d="M-167,992L-199,1334L-116,1138Z" fill="#e8926e" stroke="#e8926e" stroke-width="1.51"/><path d="M-198,-237L-210,58L-123,-97Z" fill="#fff4b3" stroke="#fff4b3" stroke-width="1.51"/><path d="M-202,242L-162,496L-136,377Z" fill="#ffd385" stroke="#ffd385" stroke-width="1.51"/><path d="M-202,242L-212,664L-162,496Z" fill="#ffcb83" stroke="#ffcb83" stroke-width="1.51"/><path d="M-178,886L-199,1334L-167,992Z" fill="#f0966d" stroke="#f0966d" stroke-width="1.51"/><path d="M-212,664L-199,1334L-178,886Z" fill="#fb9b6d" stroke="#fb9b6d" stroke-width="1.51"/><path d="M-210,58L-212,664L-202,242Z" fill="#ffd88b" stroke="#ffd88b" stroke-width="1.51"/></svg>