<?xml version="1.0"?>
<svg version="1.1" xmlns="http://www.w3.org/2000/svg" xmlns:xlink="http://www.w3.org/1999/xlink" width="120" height="120">
    <desc iVinci="yes" version="4.5" gridStep="20" showGrid="yes" snapToGrid="yes" codePlatform="0"/>
    <g id="Layer1" opacity="1">
        <g id="Shape1">
            <desc shapeID="1" type="0" basicInfo-basicType="0" basicInfo-roundedRectRadius="12" basicInfo-polygonSides="6" basicInfo-starPoints="5" bounding="rect(-8.21658,-11.1142,16.4332,22.2285)" text="" font-familyName="" font-pixelSize="20" font-bold="0" font-underline="0" font-alignment="1" strokeStyle="0" markerStart="0" markerEnd="0" shadowEnabled="0" shadowOffsetX="0" shadowOffsetY="2" shadowBlur="4" shadowOpacity="160" blurEnabled="0" blurRadius="4" transform="matrix(4.37575,0,0,4.37575,55.8923,49.1331)" pers-center="0,0" pers-size="0,0" pers-start="0,0" pers-end="0,0" locked="0" mesh="" flag=""/>
            <path id="shapePath1" d="M91.5724,93.6027 C91.5724,93.6027 72.1179,82.1427 70.035,78.6683 C67.9478,75.194 52.6589,61.2966 41.8902,36.2849 C41.8902,36.2849 36.6831,14.7431 41.8902,10.2317 C41.8902,10.2317 54.7462,10.5773 54.7462,6.75732 L46.7561,0.500004 C46.7561,0.500004 35.296,2.23718 23.8315,15.4388 C23.8315,15.4388 19.3157,26.9033 20.0115,29.6819 C20.0115,29.6819 22.7901,45.6621 27.6559,47.0536 C27.6559,47.0536 32.5174,46.7035 28.006,52.2607 C28.006,52.2607 31.1302,57.4722 34.9547,57.1222 C34.9547,57.1222 63.4408,70.7395 68.3022,81.6482 L88.6232,96.377 C88.6188,96.3857 92.9595,100.901 91.5724,93.6027 Z" style="stroke:none;fill-rule:nonzero;fill:#b0d35c;fill-opacity:1;"/>
        </g>
        <g id="Shape2">
            <desc shapeID="2" type="0" basicInfo-basicType="0" basicInfo-roundedRectRadius="12" basicInfo-polygonSides="6" basicInfo-starPoints="5" bounding="rect(-11.7475,-5.23621,23.4949,10.4724)" text="" font-familyName="" font-pixelSize="20" font-bold="0" font-underline="0" font-alignment="1" strokeStyle="0" markerStart="0" markerEnd="0" shadowEnabled="0" shadowOffsetX="0" shadowOffsetY="2" shadowBlur="4" shadowOpacity="160" blurEnabled="0" blurRadius="4" transform="matrix(4.37575,0,0,4.37575,51.9039,84.8985)" pers-center="0,0" pers-size="0,0" pers-start="0,0" pers-end="0,0" locked="0" mesh="" flag=""/>
            <path id="shapePath2" d="M99.8908,107.811 C99.8908,107.811 82.1646,93.8259 78.3183,92.9639 C74.4721,92.1018 56.304,82.4971 30.2902,80.0554 C30.2902,80.0554 9.51851,81.5475 7.68507,87.4417 C7.68507,87.4417 13.1285,98.7311 9.81169,99.8163 L1.18709,94.5129 C1.18709,94.5129 -1.88907,83.8579 4.97647,69.9562 C4.97647,69.9562 13.1154,62.7056 15.8064,62.5349 C15.8064,62.5349 30.7846,60.4608 33.9352,64.3771 C33.9352,64.3771 35.5761,68.7879 38.5953,63.2044 C38.5953,63.2044 44.3669,64.4996 45.5965,67.9827 C45.5965,67.9827 68.8055,89.3626 80.213,90.5747 L101.12,104.402 C101.125,104.402 106.778,106.971 99.8908,107.811 Z" style="stroke:none;fill-rule:nonzero;fill:#b0d35c;fill-opacity:1;"/>
        </g>
        <g id="Shape3">
            <desc shapeID="3" type="0" basicInfo-basicType="0" basicInfo-roundedRectRadius="12" basicInfo-polygonSides="6" basicInfo-starPoints="5" bounding="rect(-5.133,-5.133,10.266,10.266)" text="" font-familyName="" font-pixelSize="20" font-bold="0" font-underline="0" font-alignment="1" strokeStyle="0" markerStart="0" markerEnd="0" shadowEnabled="0" shadowOffsetX="0" shadowOffsetY="2" shadowBlur="4" shadowOpacity="160" blurEnabled="0" blurRadius="4" transform="matrix(4.37575,0,0,4.37575,91.6249,93.3096)" pers-center="0,0" pers-size="0,0" pers-start="0,0" pers-end="0,0" locked="0" mesh="" flag=""/>
            <path id="shapePath3" d="M114.086,93.3096 C114.086,105.714 104.03,115.77 91.6249,115.77 C79.2202,115.77 69.1642,105.714 69.1642,93.3096 C69.1642,80.9049 79.2202,70.8489 91.6249,70.8489 C104.03,70.8489 114.086,80.9049 114.086,93.3096 Z" style="stroke:none;fill-rule:evenodd;fill:#e21e29;fill-opacity:1;"/>
        </g>
        <g id="Shape4">
            <desc shapeID="4" type="0" basicInfo-basicType="0" basicInfo-roundedRectRadius="12" basicInfo-polygonSides="6" basicInfo-starPoints="5" bounding="rect(-1.47081,-2.72032,2.94161,5.44064)" text="" font-familyName="" font-pixelSize="20" font-bold="0" font-underline="0" font-alignment="1" strokeStyle="0" markerStart="0" markerEnd="0" shadowEnabled="0" shadowOffsetX="0" shadowOffsetY="2" shadowBlur="4" shadowOpacity="160" blurEnabled="0" blurRadius="4" transform="matrix(4.37575,0,0,4.37575,109.853,106.886)" pers-center="0,0" pers-size="0,0" pers-start="0,0" pers-end="0,0" locked="0" mesh="" flag=""/>
            <path id="shapePath4" d="M103.418,102.814 C103.418,102.814 114.847,103.326 111.079,112.904 C111.079,112.904 108.34,117.91 105.566,118.79 C105.566,118.79 115.35,114.405 116.173,109.137 C116.173,109.137 117.608,98.9499 110.401,96.6264 C103.199,94.3073 106.117,95.1211 106.117,95.1211 L103.418,102.814 Z" style="stroke:none;fill-rule:nonzero;fill:#e21e29;fill-opacity:1;"/>
        </g>
        <g id="Shape5">
            <desc shapeID="5" type="0" basicInfo-basicType="0" basicInfo-roundedRectRadius="12" basicInfo-polygonSides="6" basicInfo-starPoints="5" bounding="rect(-5.0355,-4.5435,10.071,9.087)" text="" font-familyName="" font-pixelSize="20" font-bold="0" font-underline="0" font-alignment="1" strokeStyle="0" markerStart="0" markerEnd="0" shadowEnabled="0" shadowOffsetX="0" shadowOffsetY="2" shadowBlur="4" shadowOpacity="160" blurEnabled="0" blurRadius="4" transform="matrix(4.37575,0,0,4.37575,90.6776,96.4098)" pers-center="0,0" pers-size="0,0" pers-start="0,0" pers-end="0,0" locked="0" mesh="" flag=""/>
            <path id="shapePath5" d="M93.3709,111.955 C81.4382,111.955 71.7722,102.289 71.7722,90.3604 C71.7722,85.0963 73.6581,80.2743 76.7868,76.5286 C71.8116,80.6462 68.6435,86.8685 68.6435,93.8303 C68.6435,106.236 78.7034,116.291 91.1042,116.291 C101.387,116.291 110.042,109.382 112.712,99.9607 C109.176,107.067 101.842,111.955 93.3709,111.955 Z" style="stroke:none;fill-rule:nonzero;fill:#c92031;fill-opacity:1;"/>
        </g>
        <g id="Shape6">
            <desc shapeID="6" type="0" basicInfo-basicType="0" basicInfo-roundedRectRadius="12" basicInfo-polygonSides="6" basicInfo-starPoints="5" bounding="rect(-3.904,-3.904,7.808,7.808)" text="" font-familyName="" font-pixelSize="20" font-bold="0" font-underline="0" font-alignment="1" strokeStyle="0" markerStart="0" markerEnd="0" shadowEnabled="0" shadowOffsetX="0" shadowOffsetY="2" shadowBlur="4" shadowOpacity="160" blurEnabled="0" blurRadius="4" transform="matrix(4.37575,0,0,4.37575,93.9266,87.7962)" pers-center="0,0" pers-size="0,0" pers-start="0,0" pers-end="0,0" locked="0" mesh="" flag=""/>
            <path id="shapePath6" d="M111.009,87.7962 C111.009,97.2308 103.361,104.879 93.9266,104.879 C84.4919,104.879 76.8437,97.2308 76.8437,87.7962 C76.8437,78.3615 84.4919,70.7133 93.9266,70.7133 C103.361,70.7133 111.009,78.3615 111.009,87.7962 Z" style="stroke:none;fill-rule:evenodd;fill:#f05d6d;fill-opacity:1;"/>
        </g>
        <g id="Shape7">
            <desc shapeID="7" type="0" basicInfo-basicType="0" basicInfo-roundedRectRadius="12" basicInfo-polygonSides="6" basicInfo-starPoints="5" bounding="rect(-6.59076,-2.09597,13.1815,4.19193)" text="" font-familyName="" font-pixelSize="20" font-bold="0" font-underline="0" font-alignment="1" strokeStyle="0" markerStart="0" markerEnd="0" shadowEnabled="0" shadowOffsetX="0" shadowOffsetY="2" shadowBlur="4" shadowOpacity="160" blurEnabled="0" blurRadius="4" transform="matrix(4.37575,0,0,4.37575,34.8376,75.8637)" pers-center="0,0" pers-size="0,0" pers-start="0,0" pers-end="0,0" locked="0" mesh="" flag=""/>
            <path id="shapePath7" d="M8.63456,84.3787 C7.98697,87.0873 3.94814,80.8212 7.33498,76.0079 C7.33498,76.0079 16.7166,65.7249 26.877,66.7663 C26.877,66.7663 57.4241,80.6025 63.6771,85.0351 C63.6771,85.0351 44.4019,78.594 38.079,78.6728 C24.0941,78.839 19.3201,72.3235 14.1086,75.5353 C8.89713,78.7515 9.28655,81.6658 8.63456,84.3787 Z" style="stroke:none;fill-rule:nonzero;fill:#9fba49;fill-opacity:1;"/>
        </g>
        <g id="Shape8">
            <desc shapeID="8" type="0" basicInfo-basicType="0" basicInfo-roundedRectRadius="12" basicInfo-polygonSides="6" basicInfo-starPoints="5" bounding="rect(-3.26277,-6.59496,6.52555,13.1899)" text="" font-familyName="" font-pixelSize="20" font-bold="0" font-underline="0" font-alignment="1" strokeStyle="0" markerStart="0" markerEnd="0" shadowEnabled="0" shadowOffsetX="0" shadowOffsetY="2" shadowBlur="4" shadowOpacity="160" blurEnabled="0" blurRadius="4" transform="matrix(4.37575,0,0,4.37575,43.3439,38.6042)" pers-center="0,0" pers-size="0,0" pers-start="0,0" pers-end="0,0" locked="0" mesh="" flag=""/>
            <path id="shapePath8" d="M40.6169,10.0347 C40.6169,10.0347 27.5246,7.62371 29.218,16.7428 C29.218,16.7428 32.6924,41.015 57.621,67.462 C57.621,67.462 31.0427,30.3776 35.7335,16.222 C35.7335,16.222 40.4199,11.5356 40.6169,10.0347 Z" style="stroke:none;fill-rule:nonzero;fill:#9fba49;fill-opacity:1;"/>
        </g>
    </g>
</svg>
