<?xml version="1.0" encoding="UTF-8"?>
<svg width="589px" height="640px" viewBox="0 0 589 640" version="1.1" xmlns="http://www.w3.org/2000/svg" xmlns:xlink="http://www.w3.org/1999/xlink">
    <!-- Generator: Sketch 41.1 (35376) - http://www.bohemiancoding.com/sketch -->
    <title>raddish-db</title>
    <desc>Created with Sketch.</desc>
    <defs></defs>
    <g id="Page-1" stroke="none" stroke-width="1" fill="none" fill-rule="evenodd">
        <g id="raddish-db">
            <g id="Group-2">
                <g id="Shape1" transform="translate(57.350427, 0.000000)" fill="#B0D35C">
                    <path d="M213.236092,276.661791 C213.236092,276.661791 155.537703,242.667001 149.360214,232.360587 C143.169971,222.054471 97.8259684,180.82941 65.8880291,106.635039 C65.8880291,106.635039 50.4447496,42.7337336 65.8880291,29.3511773 C65.8880291,29.3511773 104.016508,30.3763605 104.016508,19.0448232 L80.3193735,0.483205143 C80.3193735,0.483205143 46.3308718,5.63634067 12.3293205,44.7974487 C12.3293205,44.7974487 -1.06369316,78.8055874 0.999918803,87.0479891 C0.999918803,87.0479891 9.24072393,134.451439 23.6717718,138.579166 C23.6717718,138.579166 38.0900667,137.540634 24.7101026,154.025438 C24.7101026,154.025438 33.9758923,169.484761 45.3186402,168.446526 C45.3186402,168.446526 129.803056,208.840702 144.221055,241.200123 L204.48932,284.891437 C204.47627,284.917245 217.34997,298.31137 213.236092,276.661791 Z" id="shapePath1"></path>
                </g>
                <g id="Shape2" transform="translate(0.000000, 181.949580)" fill="#B0D35C">
                    <path d="M295.25733,136.859521 C295.25733,136.859521 242.684754,95.3743084 231.277351,92.8172832 C219.870245,90.2599613 165.987077,61.7687084 88.8350376,54.5256824 C88.8350376,54.5256824 27.2301109,58.9518277 21.7924726,76.4363034 C21.7924726,76.4363034 37.9366624,109.925028 28.0996276,113.14415 L2.52068573,97.412216 C2.52068573,97.412216 -6.60262641,65.8053672 13.7592743,24.5675513 C13.7592743,24.5675513 37.8978103,3.05946891 45.8788103,2.55310672 C45.8788103,2.55310672 90.301335,-3.59947563 99.6454222,8.01778403 C99.6454222,8.01778403 104.512023,21.1019218 113.466403,4.53910252 C113.466403,4.53910252 130.583883,8.38116639 134.230645,18.7133874 C134.230645,18.7133874 203.064175,82.1344353 236.896675,85.7299924 L298.902906,126.747109 C298.917735,126.747109 315.68347,134.367756 295.25733,136.859521 Z" id="shapePath2"></path>
                </g>
                <g id="Shape7" transform="translate(15.829060, 196.781513)" fill="#9FBA49">
                    <path d="M8.77942154,52.5183286 C6.85879137,60.5530832 -5.11961897,41.9654084 4.92511162,27.6873 C4.92511162,27.6873 32.7492325,-2.81605294 62.8830684,0.273142017 C62.8830684,0.273142017 153.480023,41.3166597 172.025245,54.4654647 C172.025245,54.4654647 114.858626,35.3586723 96.106094,35.5924235 C54.6295103,36.085437 40.4707239,16.7579454 25.0143949,26.2853857 C9.55815479,35.8258782 10.7131013,44.4708185 8.77942154,52.5183286 Z" id="shapePath7"></path>
                </g>
                <g id="Shape8" transform="translate(85.008547, 27.697479)" fill="#9FBA49">
                    <path d="M34.453541,1.06932017 C34.453541,1.06932017 -4.37575897,-6.08260815 0.646547009,20.9681378 C0.646547009,20.9681378 10.9509641,92.9688655 84.8845043,171.420891 C84.8845043,171.420891 6.0582641,61.4142252 19.9702949,19.4232437 C19.9702949,19.4232437 33.8692761,5.52156975 34.453541,1.06932017 Z" id="shapePath8"></path>
                </g>
            </g>
            <g id="Shape4" transform="translate(550.000000, 568.000000)" fill="#E21E29">
                <path d="M0.239709402,24.1457311 C0.239709402,24.1457311 34.1359744,25.664521 22.9607949,54.0765714 C22.9607949,54.0765714 14.8374359,68.9263025 6.6102735,71.5367227 C6.6102735,71.5367227 35.6277778,58.5291176 38.068641,42.9021933 C38.068641,42.9021933 42.3245812,12.6833168 20.9499744,5.79091765 C-0.409803419,-1.08842941 8.2444359,1.32561597 8.2444359,1.32561597 L0.239709402,24.1457311 Z" id="shapePath4"></path>
            </g>
            <g id="Capa_1" transform="translate(234.000000, 233.000000)">
                <g id="Group">
                    <g id="Layer_1_14_">
                        <g id="Group">
                            <g id="Shape" fill="#F05D6D">
                                <g>
                                    <path d="M167.760215,0 C75.4776709,0 0.663670886,27.3034375 0.663670886,61.0003125 L0.663670886,111.054479 C0.663670886,144.755625 75.4776709,172.050521 167.760215,172.050521 C260.038494,172.050521 334.852494,144.751354 334.852494,111.054479 L334.852494,61.0003125 C334.852494,27.3034375 260.038494,0 167.760215,0 Z"></path>
                                </g>
                            </g>
                            <g transform="translate(0.000000, 143.937500)" id="Shape" fill="#E21E29">
                                <g>
                                    <path d="M167.760215,57.2828125 C79.6539114,57.2828125 7.01548101,32.3753125 0.663670886,0.7925 C0.360797468,2.30010417 0.663670886,83.4544792 0.663670886,83.4544792 C0.663670886,117.159896 75.4776709,144.454792 167.760215,144.454792 C260.038494,144.454792 334.852494,117.151354 334.852494,83.4544792 C334.852494,83.4544792 335.04019,2.29583333 334.741582,0.7925 C328.381241,32.3795833 255.862253,57.2828125 167.760215,57.2828125 Z"></path>
                                </g>
                            </g>
                            <path d="M334.694658,262.5025 C328.347114,294.068229 255.866519,318.988542 167.760215,318.988542 C79.6539114,318.988542 6.99841772,294.063958 0.646607595,262.5025 L0.663670886,345.16875 C0.663670886,378.869896 75.4776709,406.164792 167.760215,406.164792 C260.038494,406.164792 334.852494,378.861354 334.852494,345.16875 L334.694658,262.5025 Z" id="Shape" fill="#C92031"></path>
                        </g>
                    </g>
                </g>
            </g>
        </g>
    </g>
</svg>