<?xml version="1.0" encoding="UTF-8"?>
<svg width="117px" height="127px" viewBox="0 0 117 127" version="1.1" xmlns="http://www.w3.org/2000/svg" xmlns:xlink="http://www.w3.org/1999/xlink">
    <!-- Generator: Sketch 41.1 (35376) - http://www.bohemiancoding.com/sketch -->
    <title>raddish-db</title>
    <desc>Created with Sketch.</desc>
    <defs></defs>
    <g id="Page-1" stroke="none" stroke-width="1" fill="none" fill-rule="evenodd">
        <g id="raddish-db">
            <g id="Page-1">
                <g>
                    <g id="raddish-db">
                        <g id="Group-2">
                            <g id="Shape1" transform="translate(11.392190, 0.000000)" fill="#B0D35C">
                                <path d="M42.3575938,54.9565867 C42.3575938,54.9565867 30.896284,48.2038016 29.6691766,46.1565173 C28.4395358,44.1092922 19.4323231,35.9202733 13.0881144,21.1821724 C13.0881144,21.1821724 10.0204341,8.4887043 13.0881144,5.83036968 C13.0881144,5.83036968 20.6620228,6.03401389 20.6620228,3.78309731 L15.9547822,0.0959847228 C15.9547822,0.0959847228 9.20324618,1.11961266 2.44911799,8.89864431 C2.44911799,8.89864431 -0.211293887,15.654081 0.198625637,17.2913663 C0.198625637,17.2913663 1.83559372,26.7076712 4.70220255,27.5276102 C4.70220255,27.5276102 7.56627811,27.3213144 4.90845841,30.595885 C4.90845841,30.595885 6.74903124,33.6667522 9.00217471,33.4605154 C9.00217471,33.4605154 25.7843082,41.4844858 28.648325,47.9124183 L40.6201196,56.5913381 C40.6175273,56.5964646 43.1747818,59.2570973 42.3575938,54.9565867 Z" id="shapePath1"></path>
                            </g>
                            <g id="Shape2" transform="translate(0.000000, 36.142786)" fill="#B0D35C">
                                <path d="M58.6504374,27.1860169 C58.6504374,27.1860169 48.207328,18.945321 45.9413414,18.437389 C43.6754137,17.9293981 32.9719661,12.2698453 17.6463487,10.8310778 C17.6463487,10.8310778 5.40903731,11.7102951 4.32889524,15.1834423 C4.32889524,15.1834423 7.5358056,21.8357017 5.58175964,22.4751537 L0.500713464,19.3501346 C0.500713464,19.3501346 -1.31155737,13.0716943 2.73316654,4.88014177 C2.73316654,4.88014177 7.52808795,0.607738306 9.11344789,0.507153627 C9.11344789,0.507153627 17.9376166,-0.715006195 19.7937426,1.59266678 C19.7937426,1.59266678 20.7604528,4.19172301 22.5391666,0.901655339 C22.5391666,0.901655339 25.9394131,1.66484969 26.6638123,3.71726032 C26.6638123,3.71726032 40.3370263,16.3153293 47.0575738,17.0295571 L59.374601,25.1772695 C59.3775467,25.1772695 62.7079219,26.6910483 58.6504374,27.1860169 Z" id="shapePath2"></path>
                            </g>
                            <g id="Shape7" transform="translate(3.144312, 39.089027)" fill="#9FBA49">
                                <path d="M1.7439598,10.4323335 C1.36244243,12.0283714 -1.01697015,8.33608282 0.978332868,5.49985416 C0.978332868,5.49985416 6.50536537,-0.559385728 12.4912037,0.0542574125 C12.4912037,0.0542574125 30.4875428,8.20721424 34.1713984,10.8191161 C34.1713984,10.8191161 22.8157203,7.0237091 19.0906842,7.07014185 C10.8517024,7.16807492 8.03917605,3.32882786 4.96890357,5.22137543 C1.89864874,7.1165157 2.12806936,8.83376191 1.7439598,10.4323335 Z" id="shapePath7"></path>
                            </g>
                            <g id="Shape8" transform="translate(16.886248, 5.501876)" fill="#9FBA49">
                                <path d="M6.84391222,0.212411647 C6.84391222,0.212411647 -0.869208488,-1.20826002 0.128431239,4.16514792 C0.128431239,4.16514792 2.17531884,18.4674996 16.8616078,34.0513485 C16.8616078,34.0513485 1.20342428,12.1994301 3.96693464,3.85826742 C3.96693464,3.85826742 6.72785281,1.09681436 6.84391222,0.212411647 Z" id="shapePath8"></path>
                            </g>
                        </g>
                        <g id="Shape4" transform="translate(109.252971, 112.828523)" fill="#E21E29">
                            <path d="M0.0476162989,4.79635066 C0.0476162989,4.79635066 6.78083023,5.09804577 4.56097284,10.7418656 C4.56097284,10.7418656 2.94733447,13.6916424 1.3130764,14.2101809 C1.3130764,14.2101809 7.07716469,11.6263273 7.56202207,8.52216743 C7.56202207,8.52216743 8.40742954,2.51943644 4.16153991,1.15031811 C-0.0814040747,-0.21620754 1.6376893,0.263322697 1.6376893,0.263322697 L0.0476162989,4.79635066 Z" id="shapePath4"></path>
                        </g>
                        <g id="Capa_1" transform="translate(46.482173, 46.283531)">
                            <g id="Group">
                                <g id="Layer_1_14_">
                                    <g id="Group">
                                        <g id="Shape" fill="#F05D6D">
                                            <path d="M33.3241853,0 C14.9930178,0 0.131832757,5.42360303 0.131832757,12.1172098 L0.131832757,22.0600578 C0.131832757,28.7545129 14.9930178,34.1764193 33.3241853,34.1764193 C51.6545056,34.1764193 66.5156907,28.7536645 66.5156907,22.0600578 L66.5156907,12.1172098 C66.5156907,5.42360303 51.6545056,0 33.3241853,0 Z"></path>
                                        </g>
                                        <g id="Shape" transform="translate(0.000000, 28.591999)" fill="#E21E29">
                                            <g id="Group">
                                                <path d="M33.3241853,11.378759 C15.8225936,11.378759 1.39356754,6.43108924 0.131832757,0.157423599 C0.0716694461,0.456896754 0.131832757,16.5775451 0.131832757,16.5775451 C0.131832757,23.2728486 14.9930178,28.6947549 33.3241853,28.6947549 C51.6545056,28.6947549 66.5156907,23.2711518 66.5156907,16.5775451 C66.5156907,16.5775451 66.5529749,0.456048386 66.4936589,0.157423599 C65.2302295,6.4319376 50.8249297,11.378759 33.3241853,11.378759 Z" id="Shape"></path>
                                            </g>
                                        </g>
                                        <path d="M66.4843378,52.1439601 C65.2234505,58.4142322 50.8257771,63.3644472 33.3241853,63.3644472 C15.8225936,63.3644472 1.39017805,58.4133838 0.128443274,52.1439601 L0.131832757,68.56493 C0.131832757,75.2593851 14.9930178,80.6812914 33.3241853,80.6812914 C51.6545056,80.6812914 66.5156907,75.2576883 66.5156907,68.56493 L66.4843378,52.1439601 Z" id="Shape" fill="#C92031"></path>
                                    </g>
                                </g>
                            </g>
                        </g>
                    </g>
                </g>
            </g>
        </g>
    </g>
</svg>