<?xml version="1.0" encoding="UTF-8"?>
<svg width="128px" height="130px" viewBox="0 0 128 130" version="1.1" xmlns="http://www.w3.org/2000/svg" xmlns:xlink="http://www.w3.org/1999/xlink">
    <!-- Generator: Sketch 41.1 (35376) - http://www.bohemiancoding.com/sketch -->
    <title>Group 3</title>
    <desc>Created with Sketch.</desc>
    <defs></defs>
    <g id="Page-1" stroke="none" stroke-width="1" fill="none" fill-rule="evenodd">
        <g id="Group-3">
            <g id="raddish" opacity="0.2" transform="translate(11.000000, 0.000000)">
                <g id="Group">
                    <g id="Layer1">
                        <g id="Shape1" transform="translate(19.000000, 0.000000)" fill="#B0D35C">
                            <path d="M72.5724,93.6027 C72.5724,93.6027 53.1179,82.1427 51.035,78.6683 C48.9478,75.194 33.6589,61.2966 22.8902,36.2849 C22.8902,36.2849 17.6831,14.7431 22.8902,10.2317 C22.8902,10.2317 35.7462,10.5773 35.7462,6.75732 L27.7561,0.500004 C27.7561,0.500004 16.296,2.23718 4.8315,15.4388 C4.8315,15.4388 0.3157,26.9033 1.0115,29.6819 C1.0115,29.6819 3.7901,45.6621 8.6559,47.0536 C8.6559,47.0536 13.5174,46.7035 9.006,52.2607 C9.006,52.2607 12.1302,57.4722 15.9547,57.1222 C15.9547,57.1222 44.4408,70.7395 49.3022,81.6482 L69.6232,96.377 C69.6188,96.3857 73.9595,100.901 72.5724,93.6027 Z" id="shapePath1"></path>
                        </g>
                        <g id="Shape2" transform="translate(0.000000, 61.000000)" fill="#B0D35C">
                            <path d="M99.8908,46.811 C99.8908,46.811 82.1646,32.8259 78.3183,31.9639 C74.4721,31.1018 56.304,21.4971 30.2902,19.0554 C30.2902,19.0554 9.51851,20.5475 7.68507,26.4417 C7.68507,26.4417 13.1285,37.7311 9.81169,38.8163 L1.18709,33.5129 C1.18709,33.5129 -1.88907,22.8579 4.97647,8.9562 C4.97647,8.9562 13.1154,1.7056 15.8064,1.5349 C15.8064,1.5349 30.7846,-0.5392 33.9352,3.3771 C33.9352,3.3771 35.5761,7.7879 38.5953,2.2044 C38.5953,2.2044 44.3669,3.4996 45.5965,6.9827 C45.5965,6.9827 68.8055,28.3626 80.213,29.5747 L101.12,43.402 C101.125,43.402 106.778,45.971 99.8908,46.811 Z" id="shapePath2"></path>
                        </g>
                        <g id="Shape3" transform="translate(69.000000, 70.000000)" fill="#E21E29">
                            <path d="M45.086,23.3096 C45.086,35.714 35.03,45.77 22.6249,45.77 C10.2202,45.77 0.1642,35.714 0.1642,23.3096 C0.1642,10.9049 10.2202,0.8489 22.6249,0.8489 C35.03,0.8489 45.086,10.9049 45.086,23.3096 Z" id="shapePath3"></path>
                        </g>
                        <g id="Shape4" transform="translate(103.000000, 94.000000)" fill="#E21E29">
                            <path d="M0.418,8.814 C0.418,8.814 11.847,9.326 8.079,18.904 C8.079,18.904 5.34,23.91 2.566,24.79 C2.566,24.79 12.35,20.405 13.173,15.137 C13.173,15.137 14.608,4.9499 7.401,2.6264 C0.199,0.3073 3.117,1.1211 3.117,1.1211 L0.418,8.814 Z" id="shapePath4"></path>
                        </g>
                        <g id="Shape5" transform="translate(68.000000, 76.000000)" fill="#C92031">
                            <path d="M25.3709,35.955 C13.4382,35.955 3.7722,26.289 3.7722,14.3604 C3.7722,9.0963 5.6581,4.2743 8.7868,0.5286 C3.8116,4.6462 0.6435,10.8685 0.6435,17.8303 C0.6435,30.236 10.7034,40.291 23.1042,40.291 C33.387,40.291 42.042,33.382 44.712,23.9607 C41.176,31.067 33.842,35.955 25.3709,35.955 Z" id="shapePath5"></path>
                        </g>
                        <g id="Shape6" transform="translate(76.000000, 70.000000)" fill="#F05D6D">
                            <path d="M35.009,17.7962 C35.009,27.2308 27.361,34.879 17.9266,34.879 C8.4919,34.879 0.8437,27.2308 0.8437,17.7962 C0.8437,8.3615 8.4919,0.7133 17.9266,0.7133 C27.361,0.7133 35.009,8.3615 35.009,17.7962 Z" id="shapePath6"></path>
                        </g>
                        <g id="Shape7" transform="translate(5.000000, 66.000000)" fill="#9FBA49">
                            <path d="M3.63456,18.3787 C2.98697,21.0873 -1.05186,14.8212 2.33498,10.0079 C2.33498,10.0079 11.7166,-0.2751 21.877,0.7663 C21.877,0.7663 52.4241,14.6025 58.6771,19.0351 C58.6771,19.0351 39.4019,12.594 33.079,12.6728 C19.0941,12.839 14.3201,6.3235 9.1086,9.5353 C3.89713,12.7515 4.28655,15.6658 3.63456,18.3787 Z" id="shapePath7"></path>
                        </g>
                        <g id="Shape8" transform="translate(29.000000, 9.000000)" fill="#9FBA49">
                            <path d="M11.6169,1.0347 C11.6169,1.0347 -1.4754,-1.37629 0.218,7.7428 C0.218,7.7428 3.6924,32.015 28.621,58.462 C28.621,58.462 2.0427,21.3776 6.7335,7.222 C6.7335,7.222 11.4199,2.5356 11.6169,1.0347 Z" id="shapePath8"></path>
                        </g>
                    </g>
                </g>
            </g>
            <path d="M100.760673,72.8493017 C100.715447,72.849034 100.670189,72.8489 100.6249,72.8489 C94.2567566,72.8489 88.507599,75.4990985 84.4201815,79.7567412 C83.3606944,80.7898359 82.403041,81.9268077 81.5636366,83.1511906 C80.3137261,82.1457118 79.4030965,81.2823066 79.035,80.6683 C76.9478,77.194 61.6589,63.2966 50.8902,38.2849 C50.8902,38.2849 45.6831,16.7431 50.8902,12.2317 C50.8902,12.2317 63.7462,12.5773 63.7462,8.75732 L55.7561,2.500004 C55.7561,2.500004 44.296,4.23718 32.8315,17.4388 C32.8315,17.4388 28.3157,28.9033 29.0115,31.6819 C29.0115,31.6819 31.7901,47.6621 36.6559,49.0536 C36.6559,49.0536 41.5174,48.7035 37.006,54.2607 C37.006,54.2607 40.1302,59.4722 43.9547,59.1222 C43.9547,59.1222 72.4408,72.7395 77.3022,83.6482 L80.0747045,85.6577303 C79.6148629,86.5609312 79.2143612,87.4994017 78.8783223,88.4680029 C67.564786,81.9289561 54.5965,69.9827 54.5965,69.9827 C53.3669,66.4996 47.5953,65.2044 47.5953,65.2044 C44.5761,70.7879 42.9352,66.3771 42.9352,66.3771 C39.7846,62.4608 24.8064,64.5349 24.8064,64.5349 C22.1154,64.7056 13.97647,71.9562 13.97647,71.9562 C7.11093,85.8579 10.18709,96.5129 10.18709,96.5129 L18.81169,101.8163 C22.1285,100.7311 16.68507,89.4417 16.68507,89.4417 C18.51851,83.5475 39.2902,82.0554 39.2902,82.0554 C56.0526411,83.6287515 69.5574756,88.1762464 78.0720144,91.4423858 C77.7908903,92.8614882 77.6435,94.3286921 77.6435,95.8303 C77.6435,108.236 87.7034,118.291 100.1042,118.291 C106.397472,118.291 112.081022,115.703113 116.155996,111.535249 C117.385132,110.358477 118.480798,109.043432 119.418008,107.615102 C120.802555,109.111223 121.456922,111.401415 120.079,114.904 C120.079,114.904 117.34,119.91 114.566,120.79 C114.566,120.79 124.35,116.405 125.173,111.137 C125.173,111.137 126.143275,104.248991 122.481145,100.508929 C122.876666,98.8401388 123.086,97.0993126 123.086,95.3096 C123.086,89.099192 120.565463,83.4774857 116.491513,79.4116534 C113.369325,75.339154 108.454624,72.7133 102.9266,72.7133 C102.192902,72.7133 101.470007,72.7595528 100.760673,72.8493017 Z" id="Combined-Shape" fill="#FFFFFF"></path>
            <g id="raddish" opacity="0.6" transform="translate(6.000000, 5.000000)">
                <g id="Group">
                    <g id="Layer1">
                        <g id="Shape1" transform="translate(19.000000, 0.000000)" fill="#B0D35C">
                            <path d="M72.5724,93.6027 C72.5724,93.6027 53.1179,82.1427 51.035,78.6683 C48.9478,75.194 33.6589,61.2966 22.8902,36.2849 C22.8902,36.2849 17.6831,14.7431 22.8902,10.2317 C22.8902,10.2317 35.7462,10.5773 35.7462,6.75732 L27.7561,0.500004 C27.7561,0.500004 16.296,2.23718 4.8315,15.4388 C4.8315,15.4388 0.3157,26.9033 1.0115,29.6819 C1.0115,29.6819 3.7901,45.6621 8.6559,47.0536 C8.6559,47.0536 13.5174,46.7035 9.006,52.2607 C9.006,52.2607 12.1302,57.4722 15.9547,57.1222 C15.9547,57.1222 44.4408,70.7395 49.3022,81.6482 L69.6232,96.377 C69.6188,96.3857 73.9595,100.901 72.5724,93.6027 Z" id="shapePath1"></path>
                        </g>
                        <g id="Shape2" transform="translate(0.000000, 61.000000)" fill="#B0D35C">
                            <path d="M99.8908,46.811 C99.8908,46.811 82.1646,32.8259 78.3183,31.9639 C74.4721,31.1018 56.304,21.4971 30.2902,19.0554 C30.2902,19.0554 9.51851,20.5475 7.68507,26.4417 C7.68507,26.4417 13.1285,37.7311 9.81169,38.8163 L1.18709,33.5129 C1.18709,33.5129 -1.88907,22.8579 4.97647,8.9562 C4.97647,8.9562 13.1154,1.7056 15.8064,1.5349 C15.8064,1.5349 30.7846,-0.5392 33.9352,3.3771 C33.9352,3.3771 35.5761,7.7879 38.5953,2.2044 C38.5953,2.2044 44.3669,3.4996 45.5965,6.9827 C45.5965,6.9827 68.8055,28.3626 80.213,29.5747 L101.12,43.402 C101.125,43.402 106.778,45.971 99.8908,46.811 Z" id="shapePath2"></path>
                        </g>
                        <g id="Shape3" transform="translate(69.000000, 70.000000)" fill="#E21E29">
                            <path d="M45.086,23.3096 C45.086,35.714 35.03,45.77 22.6249,45.77 C10.2202,45.77 0.1642,35.714 0.1642,23.3096 C0.1642,10.9049 10.2202,0.8489 22.6249,0.8489 C35.03,0.8489 45.086,10.9049 45.086,23.3096 Z" id="shapePath3"></path>
                        </g>
                        <g id="Shape4" transform="translate(103.000000, 94.000000)" fill="#E21E29">
                            <path d="M0.418,8.814 C0.418,8.814 11.847,9.326 8.079,18.904 C8.079,18.904 5.34,23.91 2.566,24.79 C2.566,24.79 12.35,20.405 13.173,15.137 C13.173,15.137 14.608,4.9499 7.401,2.6264 C0.199,0.3073 3.117,1.1211 3.117,1.1211 L0.418,8.814 Z" id="shapePath4"></path>
                        </g>
                        <g id="Shape5" transform="translate(68.000000, 76.000000)" fill="#C92031">
                            <path d="M25.3709,35.955 C13.4382,35.955 3.7722,26.289 3.7722,14.3604 C3.7722,9.0963 5.6581,4.2743 8.7868,0.5286 C3.8116,4.6462 0.6435,10.8685 0.6435,17.8303 C0.6435,30.236 10.7034,40.291 23.1042,40.291 C33.387,40.291 42.042,33.382 44.712,23.9607 C41.176,31.067 33.842,35.955 25.3709,35.955 Z" id="shapePath5"></path>
                        </g>
                        <g id="Shape6" transform="translate(76.000000, 70.000000)" fill="#F05D6D">
                            <path d="M35.009,17.7962 C35.009,27.2308 27.361,34.879 17.9266,34.879 C8.4919,34.879 0.8437,27.2308 0.8437,17.7962 C0.8437,8.3615 8.4919,0.7133 17.9266,0.7133 C27.361,0.7133 35.009,8.3615 35.009,17.7962 Z" id="shapePath6"></path>
                        </g>
                        <g id="Shape7" transform="translate(5.000000, 66.000000)" fill="#9FBA49">
                            <path d="M3.63456,18.3787 C2.98697,21.0873 -1.05186,14.8212 2.33498,10.0079 C2.33498,10.0079 11.7166,-0.2751 21.877,0.7663 C21.877,0.7663 52.4241,14.6025 58.6771,19.0351 C58.6771,19.0351 39.4019,12.594 33.079,12.6728 C19.0941,12.839 14.3201,6.3235 9.1086,9.5353 C3.89713,12.7515 4.28655,15.6658 3.63456,18.3787 Z" id="shapePath7"></path>
                        </g>
                        <g id="Shape8" transform="translate(29.000000, 9.000000)" fill="#9FBA49">
                            <path d="M11.6169,1.0347 C11.6169,1.0347 -1.4754,-1.37629 0.218,7.7428 C0.218,7.7428 3.6924,32.015 28.621,58.462 C28.621,58.462 2.0427,21.3776 6.7335,7.222 C6.7335,7.222 11.4199,2.5356 11.6169,1.0347 Z" id="shapePath8"></path>
                        </g>
                    </g>
                </g>
            </g>
            <g id="Group-2" transform="translate(3.000000, 8.000000)" fill="#FFFFFF">
                <path d="M91.7606734,70.8493017 C91.7154472,70.849034 91.6701892,70.8489 91.6249,70.8489 C85.2567566,70.8489 79.507599,73.4990985 75.4201815,77.7567412 C74.3606944,78.7898359 73.403041,79.9268077 72.5636366,81.1511906 C71.3137261,80.1457118 70.4030965,79.2823066 70.035,78.6683 C67.9478,75.194 52.6589,61.2966 41.8902,36.2849 C41.8902,36.2849 36.6831,14.7431 41.8902,10.2317 C41.8902,10.2317 54.7462,10.5773 54.7462,6.75732 L46.7561,0.500004 C46.7561,0.500004 35.296,2.23718 23.8315,15.4388 C23.8315,15.4388 19.3157,26.9033 20.0115,29.6819 C20.0115,29.6819 22.7901,45.6621 27.6559,47.0536 C27.6559,47.0536 32.5174,46.7035 28.006,52.2607 C28.006,52.2607 31.1302,57.4722 34.9547,57.1222 C34.9547,57.1222 63.4408,70.7395 68.3022,81.6482 L71.0747045,83.6577303 C70.6148629,84.5609312 70.2143612,85.4994017 69.8783223,86.4680029 C58.564786,79.9289561 45.5965,67.9827 45.5965,67.9827 C44.3669,64.4996 38.5953,63.2044 38.5953,63.2044 C35.5761,68.7879 33.9352,64.3771 33.9352,64.3771 C30.7846,60.4608 15.8064,62.5349 15.8064,62.5349 C13.1154,62.7056 4.97647,69.9562 4.97647,69.9562 C-1.88907,83.8579 1.18709,94.5129 1.18709,94.5129 L9.81169,99.8163 C13.1285,98.7311 7.68507,87.4417 7.68507,87.4417 C9.51851,81.5475 30.2902,80.0554 30.2902,80.0554 C47.0526411,81.6287515 60.5574756,86.1762464 69.0720144,89.4423858 C68.7908903,90.8614882 68.6435,92.3286921 68.6435,93.8303 C68.6435,106.236 78.7034,116.291 91.1042,116.291 C97.3974715,116.291 103.081022,113.703113 107.155996,109.535249 C108.385132,108.358477 109.480798,107.043432 110.418008,105.615102 C111.802555,107.111223 112.456922,109.401415 111.079,112.904 C111.079,112.904 108.34,117.91 105.566,118.79 C105.566,118.79 115.35,114.405 116.173,109.137 C116.173,109.137 117.143275,102.248991 113.481145,98.5089293 C113.876666,96.8401388 114.086,95.0993126 114.086,93.3096 C114.086,87.099192 111.565463,81.4774857 107.491513,77.4116534 C104.369325,73.339154 99.4546244,70.7133 93.9266,70.7133 C93.1929016,70.7133 92.4700072,70.7595528 91.7606734,70.8493017 Z" id="Combined-Shape"></path>
            </g>
            <g id="raddish" opacity="0.8" transform="translate(0.000000, 11.000000)">
                <g id="Group">
                    <g id="Layer1">
                        <g id="Shape1" transform="translate(19.000000, 0.000000)" fill="#B0D35C">
                            <path d="M72.5724,93.6027 C72.5724,93.6027 53.1179,82.1427 51.035,78.6683 C48.9478,75.194 33.6589,61.2966 22.8902,36.2849 C22.8902,36.2849 17.6831,14.7431 22.8902,10.2317 C22.8902,10.2317 35.7462,10.5773 35.7462,6.75732 L27.7561,0.500004 C27.7561,0.500004 16.296,2.23718 4.8315,15.4388 C4.8315,15.4388 0.3157,26.9033 1.0115,29.6819 C1.0115,29.6819 3.7901,45.6621 8.6559,47.0536 C8.6559,47.0536 13.5174,46.7035 9.006,52.2607 C9.006,52.2607 12.1302,57.4722 15.9547,57.1222 C15.9547,57.1222 44.4408,70.7395 49.3022,81.6482 L69.6232,96.377 C69.6188,96.3857 73.9595,100.901 72.5724,93.6027 Z" id="shapePath1"></path>
                        </g>
                        <g id="Shape2" transform="translate(0.000000, 61.000000)" fill="#B0D35C">
                            <path d="M99.8908,46.811 C99.8908,46.811 82.1646,32.8259 78.3183,31.9639 C74.4721,31.1018 56.304,21.4971 30.2902,19.0554 C30.2902,19.0554 9.51851,20.5475 7.68507,26.4417 C7.68507,26.4417 13.1285,37.7311 9.81169,38.8163 L1.18709,33.5129 C1.18709,33.5129 -1.88907,22.8579 4.97647,8.9562 C4.97647,8.9562 13.1154,1.7056 15.8064,1.5349 C15.8064,1.5349 30.7846,-0.5392 33.9352,3.3771 C33.9352,3.3771 35.5761,7.7879 38.5953,2.2044 C38.5953,2.2044 44.3669,3.4996 45.5965,6.9827 C45.5965,6.9827 68.8055,28.3626 80.213,29.5747 L101.12,43.402 C101.125,43.402 106.778,45.971 99.8908,46.811 Z" id="shapePath2"></path>
                        </g>
                        <g id="Shape3" transform="translate(69.000000, 70.000000)" fill="#E21E29">
                            <path d="M45.086,23.3096 C45.086,35.714 35.03,45.77 22.6249,45.77 C10.2202,45.77 0.1642,35.714 0.1642,23.3096 C0.1642,10.9049 10.2202,0.8489 22.6249,0.8489 C35.03,0.8489 45.086,10.9049 45.086,23.3096 Z" id="shapePath3"></path>
                        </g>
                        <g id="Shape4" transform="translate(103.000000, 94.000000)" fill="#E21E29">
                            <path d="M0.418,8.814 C0.418,8.814 11.847,9.326 8.079,18.904 C8.079,18.904 5.34,23.91 2.566,24.79 C2.566,24.79 12.35,20.405 13.173,15.137 C13.173,15.137 14.608,4.9499 7.401,2.6264 C0.199,0.3073 3.117,1.1211 3.117,1.1211 L0.418,8.814 Z" id="shapePath4"></path>
                        </g>
                        <g id="Shape5" transform="translate(68.000000, 76.000000)" fill="#C92031">
                            <path d="M25.3709,35.955 C13.4382,35.955 3.7722,26.289 3.7722,14.3604 C3.7722,9.0963 5.6581,4.2743 8.7868,0.5286 C3.8116,4.6462 0.6435,10.8685 0.6435,17.8303 C0.6435,30.236 10.7034,40.291 23.1042,40.291 C33.387,40.291 42.042,33.382 44.712,23.9607 C41.176,31.067 33.842,35.955 25.3709,35.955 Z" id="shapePath5"></path>
                        </g>
                        <g id="Shape6" transform="translate(76.000000, 70.000000)" fill="#F05D6D">
                            <path d="M35.009,17.7962 C35.009,27.2308 27.361,34.879 17.9266,34.879 C8.4919,34.879 0.8437,27.2308 0.8437,17.7962 C0.8437,8.3615 8.4919,0.7133 17.9266,0.7133 C27.361,0.7133 35.009,8.3615 35.009,17.7962 Z" id="shapePath6"></path>
                        </g>
                        <g id="Shape7" transform="translate(5.000000, 66.000000)" fill="#9FBA49">
                            <path d="M3.63456,18.3787 C2.98697,21.0873 -1.05186,14.8212 2.33498,10.0079 C2.33498,10.0079 11.7166,-0.2751 21.877,0.7663 C21.877,0.7663 52.4241,14.6025 58.6771,19.0351 C58.6771,19.0351 39.4019,12.594 33.079,12.6728 C19.0941,12.839 14.3201,6.3235 9.1086,9.5353 C3.89713,12.7515 4.28655,15.6658 3.63456,18.3787 Z" id="shapePath7"></path>
                        </g>
                        <g id="Shape8" transform="translate(29.000000, 9.000000)" fill="#9FBA49">
                            <path d="M11.6169,1.0347 C11.6169,1.0347 -1.4754,-1.37629 0.218,7.7428 C0.218,7.7428 3.6924,32.015 28.621,58.462 C28.621,58.462 2.0427,21.3776 6.7335,7.222 C6.7335,7.222 11.4199,2.5356 11.6169,1.0347 Z" id="shapePath8"></path>
                        </g>
                    </g>
                </g>
            </g>
        </g>
    </g>
</svg>